<?xml version="1.0" encoding="utf-8"?>
<!-- Generator: Adobe Illustrator 13.0.1, SVG Export Plug-In . SVG Version: 6.00 Build 14948)  -->
<!DOCTYPE svg PUBLIC "-//W3C//DTD SVG 1.1//EN" "http://www.w3.org/Graphics/SVG/1.1/DTD/svg11.dtd">
<svg version="1.1" id="Layer_1" xmlns="http://www.w3.org/2000/svg" xmlns:xlink="http://www.w3.org/1999/xlink" x="0px" y="0px"
	 width="800px" height="800px" viewBox="0 0 800 800" enable-background="new 0 0 800 800" xml:space="preserve">
<path fill="#407036" stroke="#407036" stroke-width="0.0938" d="M46.2,46.3c1.6-2.7,4.9-3.2,7.7-3.3c8.1-0.2,16.4-0.2,24,3
	c2.9,4.7,5.4,9.6,7.4,14.7c5.5,14.3,9.8,29.1,11.5,44.4c1.3,12.5,11.8,21,15.6,32.5c1.8,5.3,1.2,10.9,1.3,16.4
	c0.2,24.9,5.4,49.4,8.3,74c2.8,27,5.9,54.1,12.5,80.4c1.3,4.6,2.6,9.1,3.5,13.7c-10.3-6.2-16.2-17.5-19.4-28.7
	c-3.2-11.9-4.2-24.2-5.7-36.4c-0.9-8-3.2-15.8-4.1-23.9c-0.7-5.5-0.8-11-1.4-16.5c-0.7-6.5-4.3-12.1-5.7-18.4
	C99,186,100.1,173.4,99,161c-0.7-8.1-3.2-15.9-5.3-23.7C86.8,112.6,77.8,88.3,65,66c-1.9-3.3-3.5-7-6.5-9.5
	c-4.6-2.2-9.8-2.4-14.8-3.1c0,2.1,0.1,4.2,0.3,6.3l-0.9,0.1C42.7,55.1,43.3,50.1,46.2,46.3z"/>
<path fill="#407036" stroke="#407036" stroke-width="0.0938" d="M716.1,46c7.601-3.2,15.9-3.2,24-3c2.801,0.1,6.101,0.6,7.7,3.3
	c2.9,3.8,3.5,8.8,3.101,13.5l-0.9-0.1c0.2-2.1,0.2-4.2,0.3-6.3c-5,0.7-10.2,0.9-14.8,3.1c-3.2,2.7-4.8,6.7-6.9,10.1
	c-15,26.2-24.5,55.1-31.899,84.2c-4.601,18.5,0.6,38.6-7.5,56.5c-3.7,7.8-2.8,16.6-3.9,25c-0.899,8.6-3.399,17-4.3,25.7
	c-1.7,14.2-2.8,28.7-7.9,42.1c-3.399,8.8-8.899,17.1-17.1,22c1.7-8.4,4.5-16.5,6.1-24.9c4.301-20.8,7.2-41.9,9.101-63.1
	c2.899-26.7,8.899-53.1,9.1-80.1c0-5.7-0.5-11.7,1.5-17.1c3.101-8.4,9.4-15.1,13-23.2c2.7-5.9,2.7-12.6,3.9-19
	c2.2-11.3,5.7-22.4,9.8-33.3C710.5,56,713.1,50.9,716.1,46z"/>
<path stroke="#000000" stroke-width="0.0938" d="M77.9,46c36.7,3.5,74.1,11,106.3,29.8c25.4,15,47.4,35,67.4,56.6
	c25.7,26.4,51.3,53.3,72.3,83.6c13.3,19,24.6,39.5,32.8,61.2c2.8,6.5,5.8,12.9,8.899,19.2c3.9,7.7,9.2,15.7,17.7,18.8
	c0.2-3.3,0.601-6.7-0.8-9.8c-10.3-25.8-26.1-48.9-40-72.9c-5.7-10.3-11.8-20.5-15.8-31.6c7.6,2.8,13.899,8.3,18.8,14.6
	c13.1,17,17.3,39.3,30.9,56.1c2.899,3.4,6,7.2,10.6,8.3c6.5,1.5,13.4,1.4,19.9,0c4.899-1,8.1-5.3,11.1-8.9
	c12.9-16.2,17.2-37.1,29.2-53.8c5.1-7.1,11.8-13.3,20.1-16.3c-3.899,10.9-9.899,20.9-15.5,31c-13.899,24.2-29.899,47.5-40.3,73.5
	c-1.4,3.1-1,6.5-0.8,9.8c11-4.2,16.3-15.6,21-25.6c5.8-11.5,9.7-23.8,15.6-35.3c22.9-46.5,58.8-84.6,94.601-121.4
	c21.8-23.5,46-45.4,74.399-60.7c30.8-16.1,65.5-23,99.8-26.2c-3,4.9-5.6,10-7.6,15.4c-4.1,10.9-7.6,22-9.8,33.3
	c-1.2,6.4-1.2,13.1-3.9,19c-3.6,8.1-9.899,14.8-13,23.2c-2,5.4-1.5,11.4-1.5,17.1c-0.2,27-6.2,53.4-9.1,80.1
	c-1.9,21.2-4.8,42.3-9.101,63.1c-1.6,8.4-4.399,16.5-6.1,24.9c8.2-4.9,13.7-13.2,17.1-22c5.101-13.4,6.2-27.9,7.9-42.1
	c0.9-8.7,3.4-17.1,4.3-25.7c1.101-8.4,0.2-17.2,3.9-25c8.1-17.9,2.899-38,7.5-56.5c7.399-29.1,16.899-58,31.899-84.2
	c2.101-3.4,3.7-7.4,6.9-10.1c4.6-2.2,9.8-2.4,14.8-3.1c-0.1,2.1-0.1,4.2-0.3,6.3c-1.1,3.5-2.9,6.6-4.2,10
	c-13.3,31.9-18.1,66.4-27.7,99.4c-15.6,48.6-20.899,99.9-38,148.1c-2.399,6.8-4.5,14-9.6,19.4c-7.2,7.8-17.5,11.5-27.3,14.8
	c-8.7,2.7-17.2,6.3-26.4,7.4c-21.7,2.9-43.3-2.4-64.899-4.2c-4.9-0.9-10-0.7-14.9,0.2c-10.8,1.7-21.1,5-31.6,7.6
	c-1.9-0.9-3.9-1.7-5.801-2.5c1.2-10,0.7-20.2-0.199-30.2c-0.9-8.3-2.7-16.8-7-24.1c-2.101-3.6-6.9-3-10.4-2.9
	c-12.4,1.1-22,9.7-31.9,16.4c-5,3.6-11.199,5.9-15.1,10.9c-1.9,2.3-1,5.4-0.4,8c1.2,2.9,2.7,6,6.101,6.6c1.3-1.8,2.6-3.6,3.899-5.4
	c1.9,3.7,3.601,7.6,5,11.6c-4.399-0.4-8.8-1.3-13.199-0.4c-4.101,1-7.301,5.7-5.5,9.8c1.899,3.4,4.199,6.4,6.199,9.7
	c0.9,2,1.601,4,2.4,6c-0.9,0.7-1.7,1.4-2.5,2c-3.5,2.7-8.3,5.1-8.2,10.1c-0.6,3.4,2.3,5.6,4.101,8c2.199,2.7,3,6.2,5.3,8.8
	c2.1,1.4,4.7,2,7.1,2.8c-1.899,3.9-4.5,7.9-4.3,12.4c0.1,5.2,2.5,10,4.1,14.9c4.601,13.6,10.2,27.199,19.7,38.199
	c0.3,0.4,1,1.2,1.3,1.601c-0.1,3.6-0.5,7.2,0.601,10.7c1.399,3.8,4.2,6.699,6.399,10.1c0.4,5.8,5,10.1,6.801,15.5
	c4.5,13.7,9.3,27.2,15.199,40.4c4.2,9.5,14.2,14.199,22.9,18.6c12.4-3.1,16.6-16.7,26-24c4.3-4.3,11.1-6.9,12.9-13.2
	c0.399-9.1-5.5-17-10.9-23.8c-6.4-7.6-13.8-15-16.1-25c11.699,5.7,17.3,18.2,25.699,27.4c3.301,3.8,7.2,7.3,12,8.8
	c5.601-17.7,12.4-35.2,14.9-53.7c0.9-5.3,0.2-10.7,1.4-15.9c2.899-5.399,9.3-8.3,11.5-14.199c1.3-3.4,0.5-7.2-2-9.801
	c-6.7-7.399-14.801-13.3-21.5-20.699c6,2.699,11.1,7,17.399,8.899c4.601,1.4,10.4-0.5,12.4-5.1c0.1-2.3-0.9-4.601-1.7-6.7
	c-2.6-6-5.7-11.8-8-17.9c8.7,3.3,16.7,8,25.1,11.9c4.301,2.9,7.4,7.2,10.7,11.1C646,430.9,654.3,459.4,661.5,487
	c-4.8,6.8-12.2,11.9-14.8,20c-1.101,12.8,5.5,24.4,7.399,36.7c-8.5,4.899-17.5,8.6-26.1,13.399c-2.8,4.301-4,9.4-5.6,14.301
	c-0.801,2-1.5,4.3-3.4,5.5c-7.1,4.6-15.8,5.899-22.6,10.6c-1.7,3.9-1.301,8.3-1.601,12.5c0.101,4.1-0.5,8.4,0.8,12.3
	c4.5,4.101,10.2,6.4,15.2,9.7c2.5,10.9,5.4,21.9,10,32.1c10.7,24.601,26.9,46.101,42.4,67.7c6.6,8.9,17.899,11.4,27.5,15.5
	c4,1.7,8.3,3.5,10.7,7.3c2.3,4,0.899,9-1.5,12.601c-4.5-0.3-8.301-2.8-11.7-5.4c-10.5-8.1-19.5-17.899-28.9-27.1
	c-13.899-14-27.3-28.7-42-42c-10.2-7.2-22.5-14.7-35.399-11.8c-3,0.399-2.9,3.899-3.601,6.1c-3.399,19.4,8.8,37.1,7.7,56.3
	c-8-2.5-11.7-10.8-14.2-18.1c-2.899-8-4.3-17.2-10.899-23.101c-3.5-3.199-8.4-3.3-12.9-3.1c-5,8.1-9,16.9-14.3,24.9
	C527.1,709,523.3,701,522,693.1c-2.5-14.1,0.6-28.399-0.5-42.6c-8.4-0.8-16.8-0.4-25.1-1.1c-2.101-0.2-2.9-2.4-4-3.801
	C481.3,627.9,477.8,607,474.1,586.8c-2.6-12.2-4.3-24.5-7.399-36.5c-5.9-24.399-14.5-47.899-22.4-71.6
	c-6.399-18.9-10.899-38.4-19.399-56.4c-3.7-7.899-8.7-15.399-16-20.399c-4.4,22,2.199,44.1,2.8,66.1c0.7,13.1-1.4,26.5-7.5,38.2
	c-2,3.399-6.601,6.399-10.3,3.899c-4.4-2.199-5.7-7.3-7.4-11.5c-5.9-15.5-4.6-32.5-2.7-48.6c1.8-15.9,4.5-32.2,1.3-48.1
	c-11.6,8-17,21.6-21.699,34.3c-3.601,9.399-6.301,19.1-9.2,28.7C344.1,496.8,331.6,528,324.9,560.9
	c-3.5,17.5-6.4,35.199-10.4,52.699C311.2,626,307,638.8,299,649c-8.7,1.5-17.7,0.4-26.5,1.5c-1.2,14.5,2.2,29.1-0.6,43.4
	c-1.5,7.699-5.2,15.3-11.6,20c-5.3-8-9.3-16.801-14.3-24.9c-5.2-0.5-11,0.3-14.4,4.6c-8.4,10-7.7,24.7-16.2,34.801
	c-1.9,2.399-4.6,3.8-7.4,4.899c-1-17.3,8.7-33.1,8.3-50.3c0-3.9-0.9-7.7-2.1-11.4c-7.6-2.8-16-0.899-23.1,2.5
	c-6.3,3.101-12.5,6.5-17.6,11.4c-20.7,19.6-39.6,41.1-60.6,60.4c-5.6,4.5-11.1,10.6-18.8,11.3c-2.7-4-4-9.9-0.6-13.8
	c4.2-4.7,10.6-6.4,16.2-8.601c7.9-3.1,16.6-6.2,21.6-13.5c19-26.7,39.4-53.6,48.5-85.6c1.3-4.5,2.1-9.2,3.4-13.7
	c4.5-2.8,9.2-5.2,13.6-8.2c3.1-1.8,2.2-5.8,2.5-8.8c-0.4-5.8,0.4-12-1.7-17.5c-7.2-5.1-16.7-6-23.6-11.5c-3.9-5.7-4-13.2-8-18.9
	c-8.6-4.8-17.6-8.5-26.1-13.399c1.9-12.3,8.5-23.9,7.4-36.7c-2.6-8.1-10-13.2-14.8-20c7.2-27.6,15.6-56.1,33.7-78.9
	c3.3-3.899,6.4-8.199,10.7-11.1c8.4-3.9,16.4-8.6,25.1-11.9c-2.2,5.9-5.1,11.5-7.7,17.2c-0.9,2.4-2.1,4.8-2,7.4
	c2,4.6,7.8,6.5,12.4,5.1c6.3-1.899,11.4-6.2,17.4-8.899c-6.7,7.399-14.8,13.3-21.5,20.699c-2.5,2.601-3.4,6.5-2,9.801
	c2.1,5.199,7.1,8.3,10.5,12.5c1.9,2.199,1.5,5.3,1.7,8c0.2,15.1,4.7,29.699,9.3,44c2.3,6.399,3.9,13,6.3,19.3
	c6.5-2.101,11-7.5,15.2-12.601c6.8-8.5,12.4-18.8,22.5-23.6c-3.9,16.4-20.7,25.4-25.9,41.2c-1.3,3.7-2.2,8.5,1,11.6
	c5.2,5.4,12.1,9.2,16.8,15.2c5.7,6.9,10.6,15.8,20,18c8.7-4.4,18.7-9.1,22.9-18.6c4.2-9.301,7.7-18.801,11.2-28.301
	c2.301-6.3,3.601-13,7.301-18.699c1.8-2.7,3.1-5.7,3.5-8.9c2.1-3.4,5-6.3,6.399-10.1c1.101-3.5,0.601-7.2,0.601-10.7
	c0.3-0.4,1-1.2,1.3-1.601c9.5-11,15.1-24.6,19.7-38.199c1.6-4.9,4-9.7,4.1-14.9c0.2-4.5-2.4-8.5-4.3-12.4c2.399-0.8,5-1.399,7.1-2.8
	c2.3-2.6,3.101-6.1,5.3-8.8c1.7-2.4,4.7-4.6,4.101-8c0.1-5-4.7-7.4-8.2-10.1c-0.8-0.6-1.6-1.3-2.5-2c0.8-2,1.5-4,2.4-6
	c2-3.2,4.3-6.3,6.199-9.7c1.801-4.1-1.3-8.8-5.5-9.8c-4.399-0.9-8.8,0-13.199,0.4c1.399-4,3.1-7.9,5-11.6c1.3,1.8,2.6,3.6,3.899,5.4
	c3.4-0.6,4.9-3.7,6.101-6.6c0.6-2.6,1.5-5.7-0.4-8c-3.9-5-10.1-7.3-15.1-10.9c-9.9-6.7-19.5-15.3-31.9-16.4
	c-3.5-0.1-8.3-0.7-10.4,2.9c-4.3,7.3-6.1,15.8-7,24.1c-0.9,10-1.4,20.2-0.2,30.2c-1.9,0.8-3.9,1.6-5.8,2.5
	c-12.5-3.1-24.8-7.2-37.6-8.3c-3-0.3-6,0-8.9,0.5c-17.1,1.5-34,4.9-51.1,5.1c-9.8,0-19.7-1.2-29-4.6c-11.3-4-23.4-6.7-33.2-13.8
	c-5.4-3.8-9.5-9.2-11.7-15.3c-19.7-50.6-24.7-105.4-41.2-156.9c-9.6-33-14.4-67.5-27.7-99.4c-1.3-3.4-3.2-6.5-4.2-10
	c-0.2-2.1-0.3-4.2-0.3-6.3c5,0.7,10.2,0.9,14.8,3.1c3,2.5,4.6,6.2,6.5,9.5c12.8,22.3,21.8,46.6,28.7,71.3c2.1,7.8,4.6,15.6,5.3,23.7
	c1.1,12.4,0,25,2.7,37.2c1.4,6.3,5,11.9,5.7,18.4c0.6,5.5,0.7,11,1.4,16.5c0.9,8.1,3.2,15.9,4.1,23.9c1.5,12.2,2.5,24.5,5.7,36.4
	c3.2,11.2,9.1,22.5,19.4,28.7c-0.9-4.6-2.2-9.1-3.5-13.7c-6.6-26.3-9.7-53.4-12.5-80.4c-2.9-24.6-8.1-49.1-8.3-74
	c-0.1-5.5,0.5-11.1-1.3-16.4c-3.8-11.5-14.3-20-15.6-32.5c-1.7-15.3-6-30.1-11.5-44.4C83.3,55.6,80.8,50.7,77.9,46z"/>
<path fill="#9DF056" stroke="#9DF056" stroke-width="0.0938" d="M109.6,67.1c3.6-3.3,7.6-5.8,11.5-8.5c9.6,3.3,19.4,8.5,25.1,17.2
	c3.4,4.9,2.3,11,2.3,16.5c5,3.3,10.3,6.8,12.7,12.5c1,2.3,1,5.6-1.3,7.1c-5.4,3.3-12.5,4.1-18.3,1.5c-6-2.5-11.3-6.9-14.2-12.7
	c-1.5-3.1-1.8-7.1,0.6-9.7c1.9-2.1,4.4-3.3,6.8-4.7c-6.7-2.2-13.8-4.1-19.3-8.8C112.3,74.9,110.5,71,109.6,67.1z"/>
<path fill="#9DF056" stroke="#9DF056" stroke-width="0.0938" d="M647.8,75.8c5.7-8.7,15.5-13.9,25.101-17.2
	c3.899,2.7,7.899,5.2,11.5,8.5c-1.101,6.5-6,11.7-12,14.4c-4.2,2-8.7,3.4-13.2,4.8c3,1.9,7.1,3.4,8.2,7.2c1.3,4.9-1.7,9.6-4.9,13
	c-5.2,5.3-12.7,9.4-20.3,8.3c-3-0.6-6.2-1.3-8.601-3.3c-2.1-1.9-1.6-5.1-0.5-7.4c2.5-5.3,7.601-8.7,12.4-11.8
	C645.5,86.8,644.4,80.7,647.8,75.8z"/>
<path fill="#9DF056" stroke="#9DF056" stroke-width="0.0938" d="M182,100c4.8-0.2,9.9-0.5,14.3,1.7c5,2.3,10,5.6,12.4,10.7
	c2,4.1-0.4,9.1-4.1,11.3c-3.1,0.5-6.1-1.2-9-2.2c-5.8-2.4-12.2-5.6-14.4-11.9C179.9,106.5,180.6,103,182,100z"/>
<path fill="#9DF056" stroke="#9DF056" stroke-width="0.0938" d="M598.4,101.4c4.3-1.9,9.1-1.5,13.6-1.4c2.8,5,1.4,11.4-2.8,15.2
	c-4.9,4.3-11.2,6.8-17.4,8.5c-3,1-5.1-2-6.3-4.2c-1.8-3.2-0.8-7,1.3-9.7C589.7,106,594,103.3,598.4,101.4z"/>
<path fill="#9DF056" stroke="#9DF056" stroke-width="0.0938" d="M131.5,122.3c13.3-2.4,27.2-2.3,40.5-0.1c0.8,5.9,0.6,11.9,0.2,17.8
	c-13.7-1.8-27.4-3.4-41.2-4.4C130.7,131.2,131,126.8,131.5,122.3z"/>
<path fill="#9DF056" stroke="#9DF056" stroke-width="0.0938" d="M622,122.2c13.3-2.2,27.2-2.3,40.5,0.1c0.5,4.4,0.8,8.9,0.5,13.3
	c-13.8,1-27.5,2.6-41.2,4.4C621.4,134.1,621.2,128.1,622,122.2z"/>
<path fill="#9DF056" stroke="#9DF056" stroke-width="0.0938" d="M180.1,128.1c8.4-2,17.3-1.9,25.7,0c0.4,6,0.7,12,0.4,18
	c-5.3-0.7-10.6-1.5-15.8-2.6c-3.5-0.8-7.5-2-9.5-5.3C179,135.2,179.5,131.5,180.1,128.1z"/>
<path fill="#9DF056" stroke="#9DF056" stroke-width="0.0938" d="M588.2,128.1c8.399-1.9,17.3-2,25.7,0c1.1,4.6,0.899,10.5-3.801,13
	c-6.8,3.5-14.8,3.7-22.3,5C587.5,140.1,587.8,134.1,588.2,128.1z"/>
<path fill="#9DF056" stroke="#9DF056" stroke-width="0.0938" d="M229.5,145.5c7.1-4.8,17.5,0.8,19.2,8.7c0.7,3.2-1.3,6.1-2.7,8.8
	c-6.1,10.6-6.2,23.5-4.4,35.3c1.1,7.7,3.6,15.2,5.3,22.8c-3.8-0.9-8.1-1.2-11.3-3.6c-3-4.5-4.6-9.6-7-14.4
	c-0.3,4.7-2.1,10.7-7.6,11.3c-6.1-0.5-8.5-6.9-13.4-9.5c-2.6-0.5-5.4,0.2-8.1,0.4c-16.8,2.2-33.7-0.7-50.4-3.5l-0.7-0.1
	c-0.8-19.1-4.7-37.9-6.4-56.9c19.4-0.6,38.8,3.5,56.9,10.2c2.2,0.8,4.3,1.8,6.4,3c-0.7,8.6-3.6,16.9-4.1,25.6
	c6.2,4.6,12.5,9.2,19.6,12.4c-0.9-5-2.6-9.8-3.5-14.8c4.5-0.4,9.2-0.6,13.7-1.3c-5-6.4-11.9-11-17.5-16.9
	C216.7,155.6,222.7,149.7,229.5,145.5z"/>
<path fill="#9DF056" stroke="#9DF056" stroke-width="0.0938" d="M545.2,156.8c-0.7-9.2,11.6-16.6,19.3-11.3
	c6.8,4.2,12.8,10.1,16,17.5c-5.6,5.9-12.5,10.5-17.5,16.9c4.5,0.7,9.1,0.9,13.7,1.3c-0.9,5-2.601,9.8-3.5,14.8
	c7.1-3.2,13.399-7.8,19.6-12.4c-0.5-8.7-3.399-17-4.1-25.6c9-4.7,18.899-7.3,28.7-9.7c11.3-2.3,23-4.1,34.6-3.5
	c-1.7,19-5.6,37.8-6.4,56.9l-0.699,0.1c-16.4,2.7-33,5.6-49.601,3.6c-3-0.2-6-1-8.899-0.5c-4.9,2.6-7.301,9.1-13.4,9.5
	c-5.5-0.5-7.3-6.6-7.6-11.3c-2.4,4.8-4,9.9-7,14.4c-3.2,2.4-7.5,2.7-11.301,3.6c4.101-16.1,9.101-33.1,4.4-49.7
	C550.4,166.1,546.7,161.9,545.2,156.8z"/>
<path fill="#9DF056" stroke="#9DF056" stroke-width="0.0938" d="M268.2,177.2c2.8-2.5,7.1-6.2,10.8-3.3c12.7,7.9,19.6,25,14,39.1
	c-5.5,13.4,1.7,28.8-5.1,41.8c-12.6-1.9-25.2-9.3-30.5-21.2c-3.4-7.2-0.9-15.1-0.5-22.6C258.2,199.3,259.4,186,268.2,177.2z"/>
<path fill="#9DF056" stroke="#9DF056" stroke-width="0.0938" d="M510.4,177.4c2.199-2,4.699-3.9,7.6-4.7c6.9,1.7,11.6,7.9,14.2,14.1
	c4.5,11.2,4.5,23.4,6,35.2c1,6.9-1.7,13.9-6.2,19c-6.6,7.5-16,12.4-25.9,13.8c-5.399-10.1-2-21.9-3-32.8
	c-0.399-6.2-3.899-11.7-4.1-17.9C498.6,194,503,184.1,510.4,177.4z"/>
<path fill="#1BAA13" stroke="#1BAA13" stroke-width="0.0938" d="M149.1,201.8c16.7,2.8,33.6,5.7,50.4,3.5c2.7-0.2,5.5-0.9,8.1-0.4
	c4.9,2.6,7.3,9,13.4,9.5c-1.2,0.3-2.3,0.7-3.4,1c-0.6,1.3-1.2,2.5-1.8,3.8c-20.7,0.9-41.5-0.5-61.7-5.2
	C151.6,210.3,149.6,206.2,149.1,201.8z"/>
<path fill="#1BAA13" stroke="#1BAA13" stroke-width="0.0938" d="M595.3,205.4c16.601,2,33.2-0.9,49.601-3.6c-0.5,4.4-2.5,8.5-5,12.2
	c-20.2,4.7-41,6.1-61.7,5.2c-0.601-1.3-1.2-2.5-1.8-3.8c-1.101-0.3-2.2-0.7-3.4-1c6.1-0.4,8.5-6.9,13.4-9.5
	C589.3,204.4,592.3,205.2,595.3,205.4z"/>
<path fill="#9DF056" stroke="#9DF056" stroke-width="0.0938" d="M154.1,214c20.2,4.7,41,6.1,61.7,5.2c7.8-0.4,16.8,1.8,21.4,8.6
	c1.6,2,1.2,4.7,0.7,7c-2.7,11.7-6.7,23.2-9,35c3.9,0.1,7.8-0.1,11.7-0.3c1-8.6-0.7-17.7,3.1-25.8c1.3-2.7,3.1-5.4,5.9-6.7
	c12.6,13,28.3,22.5,40.8,35.6c1.2,1.3,2.1,2.8,3.1,4.2c-5.1,5.3-11.1,9.5-17.1,13.6c-0.8,0.9-2.4,1.4-2.5,2.8c0,3.7,1.4,7.3,2,11
	c0.5,3.3,0.4,6.6,0.3,9.9c-5,0.3-9.9,0.2-14.9,0.4c-13.9,0.7-27.7,3.3-41.7,4.1c-4.5,0.2-9.1,0.3-13.6,0.6c-0.5,4.7-0.5,9.3,0,14
	c17.9,1.5,35-7.3,53-5.4c5,0.5,9.6,2.5,14.2,4.2c-4.3,2.9-9.2,4.5-14.1,6.2c-22.9,7.5-47.4,7.2-71.2,5.2
	c-7.6-0.3-13.4-6.7-15.7-13.5c-5.3-14.8-0.4-31.2-6.2-45.8C158.4,261.6,152.6,237.9,154.1,214z"/>
<path fill="#9DF056" stroke="#9DF056" stroke-width="0.0938" d="M578.2,219.2c20.7,0.9,41.5-0.5,61.7-5.2
	c1.399,21.5-3.2,42.8-9.601,63.2c-1.8,6-4.399,11.7-5,18c-1.2,11.8,0.4,24.1-3.8,35.4c-2.4,6.5-8.1,12.5-15.4,12.8
	c-23,2-46.699,2.2-69-4.5c-5.6-1.9-11.3-3.6-16.3-6.9c4.601-1.7,9.2-3.7,14.2-4.2c18-1.9,35.1,6.9,53,5.4c0.5-4.7,0.5-9.3,0-14
	c-15.1-0.3-30.1-2.2-45.1-3.8c-8.301-1.1-16.7-0.9-25.101-1.3c-0.1-3.3-0.2-6.6,0.3-9.9c0.601-3.7,2-7.3,2-11.1
	c-0.199-1.3-1.699-1.8-2.5-2.7c-6-4.1-12-8.3-17.1-13.6c2.4-3.9,5.9-6.9,9.2-10.1c11.3-10.3,24.1-18.7,34.7-29.7
	c4.899,2.5,7.1,8.3,8,13.4c0.899,6.3,0.3,12.8,1,19.1c3.899,0.2,7.8,0.4,11.699,0.3c-2.399-12.5-6.8-24.4-9.3-36.9
	c-0.899-3.3,1.4-6.3,3.8-8.3C564.7,220.2,571.7,218.9,578.2,219.2z"/>
<path fill="#1BAA13" stroke="#1BAA13" stroke-width="0.0938" d="M301.6,305.6c2.1-3.6,6.9-3,10.4-2.9c12.4,1.1,22,9.7,31.9,16.4
	c5,3.6,11.199,5.9,15.1,10.9c1.9,2.3,1,5.4,0.4,8c-6.2-1.6-12.801-2.8-19-0.7C329.6,341,320.8,349.3,315,359
	c7.3-0.8,14.4-2.8,21.6-4.6c2-0.4,4-1,6.101-0.7c3.6,1.5,6.3,4.4,10.1,5.5c3.3,1,6.8,0.9,10.3,1c-1.899,3.4-4.199,6.5-6.199,9.7
	c-5.4,1.5-11,3.7-16.7,2.9c-4.7-0.3-9.9-2.1-14.4,0c-3.3,1.5-4.2,7.3-0.1,8.5c5.8,2.3,11.2-1.8,15.8-4.8c3.9-2.8,8.8-1.2,13-0.6
	c0.9,0.7,1.7,1.4,2.5,2c0.8,5.5,1.7,11,1.5,16.5c-2.9,1.1-6,1.8-8.5,3.6c-2.4,2.7-3.5,6.4-5.8,9.2c-4.3,5.3-8.8,10.5-13.601,15.399
	c-4.1,4.2-5.5,10.101-5.699,15.801c3.6-1.101,7.3-2.801,9.699-5.801c2.801-3.1,3.101-7.5,3.801-11.399c3.6,3,7.1,6,10.199,9.5
	c-3.199,4.1-6.8,8-9.3,12.6c-5.2,9.2-7.899,19.5-10.1,29.8c-0.3,0.4-1,1.2-1.3,1.601c-3.101,2.6-7,4.8-8.301,8.899
	c-1.5,4,0,8.101,1.301,11.9c-0.4,3.2-1.7,6.2-3.5,8.9c-3.7,5.699-5,12.399-7.301,18.699c-3.5,9.5-7,19-11.2,28.301
	c-3.7-8.7-4.4-18.101-4.3-27.4c-0.3-22.9,6.6-45.1,7.8-67.9c0.7-8.8,0.1-17.699-1-26.5c-2.6-23.199-4.5-46.5-7-69.7
	c-1.2-10-0.7-20.2,0.2-30.2C295.5,321.4,297.3,312.9,301.6,305.6z"/>
<path fill="#1BAA13" stroke="#1BAA13" stroke-width="0.0938" d="M450.1,319.1c9.9-6.7,19.5-15.3,31.9-16.4c3.5-0.1,8.3-0.7,10.4,2.9
	c4.3,7.3,6.1,15.8,7,24.1c0.899,10,1.399,20.2,0.199,30.2c-2.3,21.7-4.1,43.4-6.5,65.1c-1.1,9.5-2.199,19-1.699,28.6
	c1,23.7,8.3,46.7,8,70.4c0.1,9.3-0.601,18.7-4.301,27.4C489.2,538.2,484.4,524.7,479.9,511c-1.801-5.4-6.4-9.7-6.801-15.5
	c1.301-3.8,2.801-8,1.301-11.9c-1.301-4.1-5.2-6.3-8.301-8.899c-0.3-0.4-1-1.2-1.3-1.601c-2.3-10.199-5-20.6-10.1-29.8
	c-2.5-4.6-6.101-8.5-9.3-12.6c3.1-3.5,6.6-6.5,10.199-9.5c0.7,3.899,1,8.3,3.801,11.399c2.399,3,6.1,4.7,9.699,5.801
	c-0.199-5.7-1.6-11.601-5.699-15.801c-4.801-5-9.301-10.1-13.601-15.399c-2.3-2.8-3.399-6.5-5.8-9.2c-2.5-1.8-5.6-2.5-8.5-3.6
	c-0.2-5.5,0.7-11,1.5-16.5c0.8-0.6,1.6-1.3,2.5-2c3.3-0.5,6.8-1.5,10.2-0.7c5.2,2,9.3,7,15.3,6.7c2.4,0,6-1,6-4
	c0.3-2.9-2.2-5.5-5.1-5.9c-5.601-0.8-11.101,1.4-16.7,0.9c-4.2-0.5-8.101-1.9-12.101-3c-2-3.3-4.3-6.3-6.199-9.7c3.5-0.1,7,0,10.3-1
	c3.8-1.1,6.5-4,10.1-5.5c2.101-0.3,4.101,0.3,6.101,0.7c7.199,1.8,14.3,3.8,21.6,4.6c-5.8-9.7-14.6-18-25.4-21.6
	c-6.199-2.2-12.8-0.9-19,0.6c-0.6-2.6-1.5-5.7,0.4-8C438.9,325,445.1,322.7,450.1,319.1z"/>
<path fill="#143811" stroke="#143811" stroke-width="0.0938" d="M275.9,304.2c2.6,3.2,8.4,4.7,7.9,9.7c-0.5,5.7-3.6,10.7-6.1,15.7
	c-0.7,1.8-2.5,3-4.5,2.4c-4.6-1.7-9.2-3.7-14.2-4.2c-18-1.9-35.1,6.9-53,5.4c-0.5-4.7-0.5-9.3,0-14c4.5-0.3,9.1-0.4,13.6-0.6
	c14-0.8,27.8-3.4,41.7-4.1c5-0.2,9.9-0.1,14.9-0.4C276.3,310.8,276.4,307.5,275.9,304.2z"/>
<path fill="#143811" stroke="#143811" stroke-width="0.0938" d="M510.7,310.7c2.1-2.5,5.2-4.1,7.399-6.5c-0.5,3.3-0.399,6.6-0.3,9.9
	c8.4,0.4,16.8,0.2,25.101,1.3c15,1.6,30,3.5,45.1,3.8c0.5,4.7,0.5,9.3,0,14c-17.9,1.5-35-7.3-53-5.4c-5,0.5-9.6,2.5-14.2,4.2
	c-3.7,1-4.8-3.2-6.2-5.6C512.5,321.5,508.9,316.2,510.7,310.7z"/>
<path fill="#143811" stroke="#143811" stroke-width="0.0938" d="M340.4,337.3c6.199-2.1,12.8-0.9,19,0.7c-1.2,2.9-2.7,6-6.101,6.6
	c-1.3-1.8-2.6-3.6-3.899-5.4c-1.9,3.7-3.601,7.6-5,11.6c4.399-0.4,8.8-1.3,13.199-0.4c4.2,1,7.301,5.7,5.5,9.8c-3.5-0.1-7,0-10.3-1
	c-3.8-1.1-6.5-4-10.1-5.5c-2.101-0.3-4.101,0.3-6.101,0.7c-7.199,1.8-14.3,3.8-21.6,4.6C320.8,349.3,329.6,341,340.4,337.3z"/>
<path fill="#143811" stroke="#143811" stroke-width="0.0938" d="M434.6,338c6.2-1.5,12.801-2.8,19-0.6
	C464.4,341,473.2,349.3,479,359c-7.3-0.8-14.4-2.8-21.6-4.6c-2-0.4-4-1-6.101-0.7c-3.6,1.5-6.3,4.4-10.1,5.5c-3.3,1-6.8,0.9-10.3,1
	c-1.801-4.1,1.399-8.8,5.5-9.8c4.399-0.9,8.8,0,13.199,0.4c-1.399-4-3.1-7.9-5-11.6c-1.3,1.8-2.6,3.6-3.899,5.4
	C437.3,344,435.8,340.9,434.6,338z"/>
<path fill="#1BAA13" stroke="#1BAA13" stroke-width="0.0938" d="M242.1,354.6c2.9-0.5,5.9-0.8,8.9-0.5c12.8,1.1,25.1,5.2,37.6,8.3
	c-0.4,6.2-2.6,12.2-5.5,17.7c-1.8,3.6-5.8,4.7-9.4,5.7c-8.2,2.1-16.9,3.9-23.9,9c-3.3,2.3-5.8,5.5-7.9,8.9
	c9.1-1.2,18.1-3.601,27.2-4.5c-6.2,7.7-15,12.899-21.1,20.899c2.6,6.801,6.1,13.4,10.9,19c5.5-9.6,7-21.3,14.4-29.8
	c3.1-3.6,7.7-5.399,12.3-5.5c2.8,27.101,3.8,55-3,81.7c-6.7,27.8,2.8,57.2-6.6,84.5c-9.4-2.2-14.3-11.1-20-18
	c-4.7-6-11.6-9.8-16.8-15.2c-3.2-3.1-2.3-7.899-1-11.6c5.2-15.8,22-24.8,25.9-41.2c-10.1,4.8-15.7,15.1-22.5,23.6
	c-4.2,5.101-8.7,10.5-15.2,12.601c-2.4-6.3-4-12.9-6.3-19.3c-4.6-14.301-9.1-28.9-9.3-44c-0.2-2.7,0.2-5.801-1.7-8
	c-3.4-4.2-8.4-7.301-10.5-12.5c-1.4-3.301-0.5-7.2,2-9.801c6.7-7.399,14.8-13.3,21.5-20.699c-6,2.699-11.1,7-17.4,8.899
	c-4.6,1.4-10.4-0.5-12.4-5.1c-0.1-2.601,1.1-5,2-7.4c2.6-5.7,5.5-11.3,7.7-17.2c-8.7,3.3-16.7,8-25.1,11.9
	c3.5-5.2,8.5-9.1,13.7-12.4c10.5-6.8,22.4-10.7,33.5-16.5C230.7,364.6,237.6,360.8,242.1,354.6z"/>
<path fill="#1BAA13" stroke="#1BAA13" stroke-width="0.0938" d="M537,354.8c4.9-0.9,10-1.1,14.9-0.2c1.899,2.5,4.199,4.9,6.8,6.7
	c14.3,10.4,31.899,14.6,46.5,24.5c4.5,3.1,8.8,6.6,11.899,11.2c-8.399-3.9-16.399-8.6-25.1-11.9c2.3,6.1,5.4,11.9,8,17.9
	c0.8,2.1,1.8,4.4,1.7,6.7c-2,4.6-7.8,6.5-12.4,5.1C583,412.9,577.9,408.6,571.9,405.9c6.699,7.399,14.8,13.3,21.5,20.699
	c2.5,2.601,3.3,6.4,2,9.801c-2.2,5.899-8.601,8.8-11.5,14.199c-1.2,5.2-0.5,10.601-1.4,15.9c-2.5,18.5-9.3,36-14.9,53.7
	c-4.8-1.5-8.699-5-12-8.8c-8.399-9.2-14-21.7-25.699-27.4c2.3,10,9.699,17.4,16.1,25c5.4,6.8,11.3,14.7,10.9,23.8
	c-1.801,6.3-8.601,8.9-12.9,13.2c-9.4,7.3-13.6,20.9-26,24c-7.8-22.4-2.6-46.4-4.4-69.6C513,488.8,509,477.8,507.7,466.3
	c-2.4-20.8-1.5-41.8,0.7-62.5c4.899,0.101,9.699,2.2,12.8,6.101c7,8.5,8.5,19.8,13.899,29.199c4.801-5.6,8.301-12.199,10.9-19
	c-6.1-8-14.9-13.199-21.1-20.899c9.1,0.899,18.1,3.3,27.199,4.5c-2.1-3.4-4.6-6.601-7.899-8.9c-7-5.1-15.7-6.9-23.9-9
	c-3.6-1-7.6-2.1-9.399-5.7c-2.9-5.5-5.101-11.5-5.5-17.7C515.9,359.8,526.2,356.5,537,354.8z"/>
<path fill="#143811" stroke="#143811" stroke-width="0.0938" d="M288.6,362.4c1.9-0.9,3.9-1.7,5.8-2.5c2.5,23.2,4.4,46.5,7,69.7
	c1.1,8.801,1.7,17.7,1,26.5c-1.2,22.801-8.1,45-7.8,67.9c-0.1,9.3,0.6,18.7,4.3,27.4c-4.2,9.5-14.2,14.199-22.9,18.6
	c9.4-27.3-0.1-56.7,6.6-84.5c6.8-26.7,5.8-54.6,3-81.7c-4.6,0.101-9.2,1.9-12.3,5.5c-7.4,8.5-8.9,20.2-14.4,29.8
	c-4.8-5.6-8.3-12.199-10.9-19c6.1-8,14.9-13.199,21.1-20.899c-9.1,0.899-18.1,3.3-27.2,4.5c2.1-3.4,4.6-6.601,7.9-8.9
	c7-5.1,15.7-6.9,23.9-9c3.6-1,7.6-2.1,9.4-5.7C286,374.6,288.2,368.6,288.6,362.4z"/>
<path fill="#143811" stroke="#143811" stroke-width="0.0938" d="M493.1,425c2.4-21.7,4.2-43.4,6.5-65.1c1.9,0.8,3.9,1.6,5.801,2.5
	c0.399,6.2,2.6,12.2,5.5,17.7c1.8,3.6,5.8,4.7,9.399,5.7c8.2,2.1,16.9,3.9,23.9,9c3.3,2.3,5.8,5.5,7.899,8.9
	c-9.1-1.2-18.1-3.601-27.199-4.5c6.199,7.7,15,12.899,21.1,20.899c-2.6,6.801-6.1,13.4-10.9,19C529.7,429.7,528.2,418.4,521.2,409.9
	c-3.101-3.9-7.9-6-12.8-6.101c-2.2,20.7-3.101,41.7-0.7,62.5c1.3,11.5,5.3,22.5,5.899,34.101C515.4,523.6,510.2,547.6,518,570
	c-8.7-4.4-18.7-9.1-22.9-18.6c3.7-8.7,4.4-18.101,4.301-27.4c0.3-23.7-7-46.7-8-70.4C490.9,444,492,434.5,493.1,425z"/>
<path fill="#143811" stroke="#143811" stroke-width="0.0938" d="M340.2,372.8c5.7,0.8,11.3-1.4,16.7-2.9c-0.9,2-1.601,4-2.4,6
	c-4.2-0.6-9.1-2.2-13,0.6c-4.6,3-10,7.1-15.8,4.8c-4.101-1.2-3.2-7,0.1-8.5C330.3,370.7,335.5,372.5,340.2,372.8z"/>
<path fill="#143811" stroke="#143811" stroke-width="0.0938" d="M437.1,369.9c4,1.1,7.9,2.5,12.101,3c5.6,0.5,11.1-1.7,16.7-0.9
	c2.899,0.4,5.399,3,5.1,5.9c0,3-3.6,4-6,4c-6,0.3-10.1-4.7-15.3-6.7c-3.4-0.8-6.9,0.2-10.2,0.7C438.7,373.9,438,371.9,437.1,369.9z"
	/>
<path fill="#143811" stroke="#143811" stroke-width="0.0938" d="M357,377.9c3.5,2.7,8.3,5.1,8.2,10.1c0.6,3.4-2.4,5.6-4.101,8
	c-2.199,2.7-3,6.2-5.3,8.8c-2.1,1.4-4.7,2-7.1,2.8c1.899,3.9,4.5,7.9,4.3,12.4c-0.1,5.2-2.5,10-4.1,14.9
	c-4.601,13.6-10.2,27.199-19.7,38.199c2.2-10.3,4.899-20.6,10.1-29.8c2.5-4.6,6.101-8.5,9.3-12.6c-3.1-3.5-6.6-6.5-10.199-9.5
	c-0.7,3.899-1,8.3-3.801,11.399c-2.399,3-6.1,4.7-9.699,5.801c0.199-5.7,1.6-11.601,5.699-15.801
	C335.4,417.7,339.9,412.5,344.2,407.2c2.3-2.8,3.399-6.5,5.8-9.2c2.5-1.8,5.6-2.5,8.5-3.6C358.7,388.9,357.8,383.4,357,377.9z"/>
<path fill="#143811" stroke="#143811" stroke-width="0.0938" d="M428.8,388c-0.1-5,4.7-7.4,8.2-10.1c-0.8,5.5-1.7,11-1.5,16.5
	c2.9,1.1,6,1.8,8.5,3.6c2.4,2.7,3.5,6.4,5.8,9.2c4.3,5.3,8.8,10.399,13.601,15.399c4.1,4.2,5.5,10.101,5.699,15.801
	c-3.6-1.101-7.3-2.801-9.699-5.801c-2.801-3.1-3.101-7.5-3.801-11.399c-3.6,3-7.1,6-10.199,9.5c3.199,4.1,6.8,8,9.3,12.6
	c5.1,9.2,7.8,19.601,10.1,29.8c-9.5-11-15.1-24.6-19.7-38.199c-1.6-4.9-4-9.7-4.1-14.9c-0.2-4.5,2.4-8.5,4.3-12.4
	c-2.399-0.8-5-1.399-7.1-2.8c-2.3-2.6-3.101-6.1-5.3-8.8C431.1,393.6,428.2,391.4,428.8,388z"/>
<path fill="#143811" stroke="#143811" stroke-width="0.0938" d="M311.1,444.1c3.101-3.199,7.9-3.1,12-3.6c-0.6,3.8-0.5,8.3-3.3,11.3
	c-2.399,2.601-6.2,2-9.399,1.7C309.3,450.5,308.7,446.7,311.1,444.1z"/>
<path fill="#143811" stroke="#143811" stroke-width="0.0938" d="M470.9,440.5c4.1,0.4,9,0.4,12,3.6c2.399,2.601,1.8,6.4,0.699,9.4
	c-3.199,0.2-7,0.9-9.399-1.7C471.4,448.8,471.5,444.3,470.9,440.5z"/>
<path fill="#FFFFFF" stroke="#FFFFFF" stroke-width="0.0938" d="M144.1,471.9c4.5,0.399,9,0.8,13.6,1.399
	c2.2,8.7,5.3,17.2,6.4,26.101c-4.6-1.2-8.5-4.5-11.1-8.4C149.1,485.1,146.6,478.5,144.1,471.9z"/>
<path fill="#FFFFFF" stroke="#FFFFFF" stroke-width="0.0938" d="M636.3,473.3c4.5-0.6,9.101-1,13.601-1.399
	c-4.2,10.399-8,23.899-20,27.5C631,490.5,634.1,482,636.3,473.3z"/>
<path fill="#143811" stroke="#143811" stroke-width="0.0938" d="M319.6,483.6c1.301-4.1,5.2-6.3,8.301-8.899
	c0,3.5,0.5,7.2-0.601,10.7c-1.399,3.8-4.3,6.699-6.399,10.1C319.6,491.7,318.1,487.6,319.6,483.6z"/>
<path fill="#143811" stroke="#143811" stroke-width="0.0938" d="M466.1,474.7c3.101,2.6,7,4.8,8.301,8.899
	c1.5,3.9,0,8.101-1.301,11.9c-2.199-3.4-5-6.3-6.399-10.1C465.6,481.9,466,478.3,466.1,474.7z"/>
<path fill="#143811" stroke="#143811" stroke-width="0.0938" d="M270.6,501.6c2-1.899,4.8-2.5,7.5-2.899c1,6.899-0.4,13.8-2,20.399
	c-2.4,9.2-7.8,18.2-16.8,21.9c1-6.6,2.1-13.1,2.9-19.8C263.2,514.2,264.7,506.3,270.6,501.6z"/>
<path fill="#143811" stroke="#143811" stroke-width="0.0938" d="M515.9,498.8c7.6,0.2,12.6,7.2,14.199,14
	c2.301,9.3,2.801,18.9,4.7,28.2c-9.1-3.7-14.5-12.7-16.899-21.9C516.3,512.5,514.9,505.6,515.9,498.8z"/>
<path fill="#A3B09C" stroke="#A3B09C" stroke-width="0.0938" d="M152.9,521.2c13.9,5,25,17,29.9,30.8c-8.7-0.4-16.3-5.5-21.6-12.2
	C156.8,534.5,153.8,528,152.9,521.2z"/>
<path fill="#A3B09C" stroke="#A3B09C" stroke-width="0.0938" d="M611.2,552c4.899-13.8,16-25.8,29.899-30.8
	c-1.399,10.6-7.8,20.2-16.6,26.3C620.6,550.2,615.9,551.6,611.2,552z"/>
<path fill="#143811" stroke="#143811" stroke-width="0.0938" d="M166,557.1c4,5.7,4.1,13.2,8,18.9c6.9,5.5,16.4,6.4,23.6,11.5
	c2.1,5.5,1.3,11.7,1.7,17.5c-0.3,3,0.6,7-2.5,8.8c-4.4,3-9.1,5.4-13.6,8.2c-3.3-3.2-6.9-6.3-11.1-8.1c-5.7-2.7-11.9-3.4-18-4
	C158.7,592.5,168.3,575.7,166,557.1z"/>
<path fill="#143811" stroke="#143811" stroke-width="0.0938" d="M622.4,571.4c1.6-4.9,2.8-10,5.6-14.301
	c-2.3,18.601,7.3,35.4,11.9,52.801c-10.7,0.5-21.7,3.899-29.101,12.1c-5-3.3-10.7-5.6-15.2-9.7c-1.3-3.899-0.699-8.2-0.8-12.3
	c0.3-4.2-0.1-8.6,1.601-12.5c6.8-4.7,15.5-6,22.6-10.6C620.9,575.7,621.6,573.4,622.4,571.4z"/>
<path fill="#9DF056" stroke="#9DF056" stroke-width="0.0938" d="M294.8,574.8c3.4-0.399,7.4-0.2,9.8,2.601
	c4.2,4.899,4.6,11.6,5,17.8c-4.899-2.2-9.899-4.4-14.5-7.3C294.7,583.5,294.4,579.2,294.8,574.8z"/>
<path fill="#9DF056" stroke="#9DF056" stroke-width="0.0938" d="M489.4,577.4c2.399-2.801,6.399-3,9.8-2.601
	c0.399,4.4,0.1,8.7-0.3,13.101c-4.601,2.899-9.601,5.1-14.5,7.3C484.8,589,485.2,582.3,489.4,577.4z"/>
<path fill="#9DF056" stroke="#9DF056" stroke-width="0.0938" d="M189.8,645.8c7.5-7.7,21.2-7.8,29.1-0.7c3.5,3.2,4.8,8.101,4.2,12.7
	c-12.3-1.5-24.7-1.899-36.9,0C186,653.5,186.7,648.9,189.8,645.8z"/>
<path fill="#9DF056" stroke="#9DF056" stroke-width="0.0938" d="M577.4,643.3c8.199-5.2,20.6-4.6,27.3,3c2.8,3.101,3.2,7.5,3.1,11.5
	c-12.2-1.899-24.6-1.5-36.899,0C570.1,652.2,572.5,646.3,577.4,643.3z"/>
</svg>
