<?xml version="1.0" encoding="UTF-8" ?>
<!DOCTYPE svg PUBLIC "-//W3C//DTD SVG 1.1//EN" "http://www.w3.org/Graphics/SVG/1.1/DTD/svg11.dtd">
<svg width="800pt" height="800pt" viewBox="0 0 800 800" version="1.1" xmlns="http://www.w3.org/2000/svg">
<path fill="#ffffff" stroke="#ffffff" stroke-width="0.09375" d=" M 0.0 0.0 L 800.0 0.0 L 800.0 800.0 L 0.0 800.0 L 0.0 0.0 Z" />
<path fill="#407036" stroke="#407036" stroke-width="0.09375" d=" M 46.2 46.3 C 47.8 43.6 51.1 43.1 53.9 43.0 C 62.0 42.8 70.3 42.8 77.9 46.0 C 80.8 50.7 83.3 55.6 85.3 60.7 C 90.8 75.0 95.1 89.8 96.8 105.1 C 98.1 117.6 108.6 126.1 112.4 137.6 C 114.2 142.9 113.6 148.5 113.7 154.0 C 113.9 178.9 119.1 203.4 122.0 228.0 C 124.8 255.0 127.9 282.1 134.5 308.4 C 135.8 313.0 137.1 317.5 138.0 322.1 C 127.7 315.9 121.8 304.6 118.6 293.4 C 115.4 281.5 114.4 269.2 112.9 257.0 C 112.0 249.0 109.7 241.2 108.8 233.1 C 108.1 227.6 108.0 222.1 107.4 216.6 C 106.7 210.1 103.1 204.5 101.7 198.2 C 99.0 186.0 100.1 173.4 99.0 161.0 C 98.3 152.9 95.8 145.1 93.7 137.3 C 86.8 112.6 77.8 88.3 65.0 66.0 C 63.1 62.7 61.5 59.0 58.5 56.5 C 53.9 54.3 48.7 54.1 43.7 53.4 C 43.7 55.5 43.8 57.6 44.0 59.7 L 43.1 59.8 C 42.7 55.1 43.3 50.1 46.2 46.3 Z" />
<path fill="#407036" stroke="#407036" stroke-width="0.09375" d=" M 716.1 46.0 C 723.7 42.8 732.0 42.8 740.1 43.0 C 742.9 43.1 746.2 43.6 747.8 46.3 C 750.7 50.1 751.3 55.1 750.9 59.8 L 750.0 59.7 C 750.2 57.6 750.2 55.5 750.3 53.4 C 745.3 54.1 740.1 54.3 735.5 56.5 C 732.3 59.2 730.7 63.2 728.6 66.6 C 713.6 92.8 704.1 121.7 696.7 150.8 C 692.1 169.3 697.3 189.4 689.2 207.3 C 685.5 215.1 686.4 223.9 685.3 232.3 C 684.4 240.9 681.9 249.3 681.0 258.0 C 679.3 272.2 678.2 286.7 673.1 300.1 C 669.7 308.9 664.2 317.2 656.0 322.1 C 657.7 313.7 660.5 305.6 662.1 297.2 C 666.4 276.4 669.3 255.3 671.2 234.1 C 674.1 207.4 680.1 181.0 680.3 154.0 C 680.3 148.3 679.8 142.3 681.8 136.9 C 684.9 128.5 691.2 121.8 694.8 113.7 C 697.5 107.8 697.5 101.1 698.7 94.7 C 700.9 83.4 704.4 72.3 708.5 61.4 C 710.5 56.0 713.1 50.9 716.1 46.0 Z" />
<path fill="#000000" stroke="#000000" stroke-width="0.09375" d=" M 77.9 46.0 C 114.6 49.5 152.0 57.0 184.2 75.8 C 209.6 90.8 231.6 110.8 251.6 132.4 C 277.3 158.8 302.9 185.7 323.9 216.0 C 337.2 235.0 348.5 255.5 356.7 277.2 C 359.5 283.7 362.5 290.1 365.6 296.4 C 369.5 304.1 374.8 312.1 383.3 315.2 C 383.5 311.9 383.9 308.5 382.5 305.4 C 372.2 279.6 356.4 256.5 342.5 232.5 C 336.8 222.2 330.7 212.0 326.7 200.9 C 334.3 203.7 340.6 209.2 345.5 215.5 C 358.6 232.5 362.8 254.8 376.4 271.6 C 379.3 275.0 382.4 278.8 387.0 279.9 C 393.5 281.4 400.4 281.3 406.9 279.9 C 411.8 278.9 415.0 274.6 418.0 271.0 C 430.9 254.8 435.2 233.9 447.2 217.2 C 452.3 210.1 459.0 203.9 467.3 200.9 C 463.4 211.8 457.4 221.8 451.8 231.9 C 437.9 256.1 421.9 279.4 411.5 305.4 C 410.1 308.5 410.5 311.9 410.7 315.2 C 421.7 311.0 427.0 299.6 431.7 289.6 C 437.5 278.1 441.4 265.8 447.3 254.3 C 470.2 207.8 506.1 169.7 541.9 132.9 C 563.7 109.4 587.9 87.5 616.3 72.2 C 647.1 56.1 681.8 49.2 716.1 46.0 C 713.1 50.9 710.5 56.0 708.5 61.4 C 704.4 72.3 700.9 83.4 698.7 94.7 C 697.5 101.1 697.5 107.8 694.8 113.7 C 691.2 121.8 684.9 128.5 681.8 136.9 C 679.8 142.3 680.3 148.3 680.3 154.0 C 680.1 181.0 674.1 207.4 671.2 234.1 C 669.3 255.3 666.4 276.4 662.1 297.2 C 660.5 305.6 657.7 313.7 656.0 322.1 C 664.2 317.2 669.7 308.9 673.1 300.1 C 678.2 286.7 679.3 272.2 681.0 258.0 C 681.9 249.3 684.4 240.9 685.3 232.3 C 686.4 223.9 685.5 215.1 689.2 207.3 C 697.3 189.4 692.1 169.3 696.7 150.8 C 704.1 121.7 713.6 92.8 728.6 66.6 C 730.7 63.2 732.3 59.2 735.5 56.5 C 740.1 54.3 745.3 54.1 750.3 53.4 C 750.2 55.5 750.2 57.6 750.0 59.7 C 748.9 63.2 747.1 66.3 745.8 69.7 C 732.5 101.6 727.7 136.1 718.1 169.1 C 702.5 217.7 697.2 269.0 680.1 317.2 C 677.7 324.0 675.6 331.2 670.5 336.6 C 663.3 344.4 653.0 348.1 643.2 351.4 C 634.5 354.1 626.0 357.7 616.8 358.8 C 595.1 361.7 573.5 356.4 551.9 354.6 C 547.0 353.7 541.9 353.9 537.0 354.8 C 526.2 356.5 515.9 359.8 505.4 362.4 C 503.5 361.5 501.5 360.7 499.6 359.9 C 500.8 349.9 500.3 339.7 499.4 329.7 C 498.5 321.4 496.7 312.9 492.4 305.6 C 490.3 302.0 485.5 302.6 482.0 302.7 C 469.6 303.8 460.0 312.4 450.1 319.1 C 445.1 322.7 438.9 325.0 435.0 330.0 C 433.1 332.3 434.0 335.4 434.6 338.0 C 435.8 340.9 437.3 344.0 440.7 344.6 C 442.0 342.8 443.3 341.0 444.6 339.2 C 446.5 342.9 448.2 346.8 449.6 350.8 C 445.2 350.4 440.8 349.5 436.4 350.4 C 432.3 351.4 429.1 356.1 430.9 360.2 C 432.8 363.6 435.1 366.6 437.1 369.9 C 438.0 371.9 438.7 373.9 439.5 375.9 C 438.6 376.6 437.8 377.3 437.0 377.9 C 433.5 380.6 428.7 383.0 428.8 388.0 C 428.2 391.4 431.1 393.6 432.9 396.0 C 435.1 398.7 435.9 402.2 438.2 404.8 C 440.3 406.2 442.9 406.8 445.3 407.6 C 443.4 411.5 440.8 415.5 441.0 420.0 C 441.1 425.2 443.5 430.0 445.1 434.9 C 449.7 448.5 455.3 462.1 464.8 473.1 C 465.1 473.5 465.8 474.3 466.1 474.7 C 466.0 478.3 465.6 481.9 466.7 485.4 C 468.1 489.2 470.9 492.1 473.1 495.5 C 473.5 501.3 478.1 505.6 479.9 511.0 C 484.4 524.7 489.2 538.2 495.1 551.4 C 499.3 560.9 509.3 565.6 518.0 570.0 C 530.4 566.9 534.6 553.3 544.0 546.0 C 548.3 541.7 555.1 539.1 556.9 532.8 C 557.3 523.7 551.4 515.8 546.0 509.0 C 539.6 501.4 532.2 494.0 529.9 484.0 C 541.6 489.7 547.2 502.2 555.6 511.4 C 558.9 515.2 562.8 518.7 567.6 520.2 C 573.2 502.5 580.0 485.0 582.5 466.5 C 583.4 461.2 582.7 455.8 583.9 450.6 C 586.8 445.2 593.2 442.3 595.4 436.4 C 596.7 433.0 595.9 429.2 593.4 426.6 C 586.7 419.2 578.6 413.3 571.9 405.9 C 577.9 408.6 583.0 412.9 589.3 414.8 C 593.9 416.2 599.7 414.3 601.7 409.7 C 601.8 407.4 600.8 405.1 600.0 403.0 C 597.4 397.0 594.3 391.2 592.0 385.1 C 600.7 388.4 608.7 393.1 617.1 397.0 C 621.4 399.9 624.5 404.2 627.8 408.1 C 646.0 430.9 654.3 459.4 661.5 487.0 C 656.7 493.8 649.3 498.9 646.7 507.0 C 645.6 519.8 652.2 531.4 654.1 543.7 C 645.6 548.6 636.6 552.3 628.0 557.1 C 625.2 561.4 624.0 566.5 622.4 571.4 C 621.6 573.4 620.9 575.7 619.0 576.9 C 611.9 581.5 603.2 582.8 596.4 587.5 C 594.7 591.4 595.1 595.8 594.8 600.0 C 594.9 604.1 594.3 608.4 595.6 612.3 C 600.1 616.4 605.8 618.7 610.8 622.0 C 613.3 632.9 616.2 643.9 620.8 654.1 C 631.5 678.7 647.7 700.2 663.2 721.8 C 669.8 730.7 681.1 733.2 690.7 737.3 C 694.7 739.0 699.0 740.8 701.4 744.6 C 703.7 748.6 702.3 753.6 699.9 757.2 C 695.4 756.9 691.6 754.4 688.2 751.8 C 677.7 743.7 668.7 733.9 659.3 724.7 C 645.4 710.7 632.0 696.0 617.3 682.7 C 607.1 675.5 594.8 668.0 581.9 670.9 C 578.9 671.3 579.0 674.8 578.3 677.0 C 574.9 696.4 587.1 714.1 586.0 733.3 C 578.0 730.8 574.3 722.5 571.8 715.2 C 568.9 707.2 567.5 698.0 560.9 692.1 C 557.4 688.9 552.5 688.8 548.0 689.0 C 543.0 697.1 539.0 705.9 533.7 713.9 C 527.1 709.0 523.3 701.0 522.0 693.1 C 519.5 679.0 522.6 664.7 521.5 650.5 C 513.1 649.7 504.7 650.1 496.4 649.4 C 494.3 649.2 493.5 647.0 492.4 645.6 C 481.3 627.9 477.8 607.0 474.1 586.8 C 471.5 574.6 469.8 562.3 466.7 550.3 C 460.8 525.9 452.2 502.4 444.3 478.7 C 437.9 459.8 433.4 440.3 424.9 422.3 C 421.2 414.4 416.2 406.9 408.9 401.9 C 404.5 423.9 411.1 446.0 411.7 468.0 C 412.4 481.1 410.3 494.5 404.2 506.2 C 402.2 509.6 397.6 512.6 393.9 510.1 C 389.5 507.9 388.2 502.8 386.5 498.6 C 380.6 483.1 381.9 466.1 383.8 450.0 C 385.6 434.1 388.3 417.8 385.1 401.9 C 373.5 409.9 368.1 423.5 363.4 436.2 C 359.8 445.6 357.1 455.3 354.2 464.9 C 344.1 496.8 331.6 528.0 324.9 560.9 C 321.4 578.4 318.5 596.1 314.5 613.6 C 311.2 626.0 307.0 638.8 299.0 649.0 C 290.3 650.5 281.3 649.4 272.5 650.5 C 271.3 665.0 274.7 679.6 271.9 693.9 C 270.4 701.6 266.7 709.2 260.3 713.9 C 255.0 705.9 251.0 697.1 246.0 689.0 C 240.8 688.5 235.0 689.3 231.6 693.6 C 223.2 703.6 223.9 718.3 215.4 728.4 C 213.5 730.8 210.8 732.2 208.0 733.3 C 207.0 716.0 216.7 700.2 216.3 683.0 C 216.3 679.1 215.4 675.3 214.2 671.6 C 206.6 668.8 198.2 670.7 191.1 674.1 C 184.8 677.2 178.6 680.6 173.5 685.5 C 152.8 705.1 133.9 726.6 112.9 745.9 C 107.3 750.4 101.8 756.5 94.1 757.2 C 91.4 753.2 90.1 747.3 93.5 743.4 C 97.7 738.7 104.1 737.0 109.7 734.8 C 117.6 731.7 126.3 728.6 131.3 721.3 C 150.3 694.6 170.7 667.7 179.8 635.7 C 181.1 631.2 181.9 626.5 183.2 622.0 C 187.7 619.2 192.4 616.8 196.8 613.8 C 199.9 612.0 199.0 608.0 199.3 605.0 C 198.9 599.2 199.7 593.0 197.6 587.5 C 190.4 582.4 180.9 581.5 174.0 576.0 C 170.1 570.3 170.0 562.8 166.0 557.1 C 157.4 552.3 148.4 548.6 139.9 543.7 C 141.8 531.4 148.4 519.8 147.3 507.0 C 144.7 498.9 137.3 493.8 132.5 487.0 C 139.7 459.4 148.1 430.9 166.2 408.1 C 169.5 404.2 172.6 399.9 176.9 397.0 C 185.3 393.1 193.3 388.4 202.0 385.1 C 199.8 391.0 196.9 396.6 194.3 402.3 C 193.4 404.7 192.2 407.1 192.3 409.7 C 194.3 414.3 200.1 416.2 204.7 414.8 C 211.0 412.9 216.1 408.6 222.1 405.9 C 215.4 413.3 207.3 419.2 200.6 426.6 C 198.1 429.2 197.2 433.1 198.6 436.4 C 200.7 441.6 205.7 444.7 209.1 448.9 C 211.0 451.1 210.6 454.2 210.8 456.9 C 211.0 472.0 215.5 486.6 220.1 500.9 C 222.4 507.3 224.0 513.9 226.4 520.2 C 232.9 518.1 237.4 512.7 241.6 507.6 C 248.4 499.1 254.0 488.8 264.1 484.0 C 260.2 500.4 243.4 509.4 238.2 525.2 C 236.9 528.9 236.0 533.7 239.2 536.8 C 244.4 542.2 251.3 546.0 256.0 552.0 C 261.7 558.9 266.6 567.8 276.0 570.0 C 284.7 565.6 294.7 560.9 298.9 551.4 C 303.1 542.1 306.6 532.6 310.1 523.1 C 312.4 516.8 313.7 510.1 317.4 504.4 C 319.2 501.7 320.5 498.7 320.9 495.5 C 323.0 492.1 325.9 489.2 327.3 485.4 C 328.4 481.9 327.9 478.2 327.9 474.7 C 328.2 474.3 328.9 473.5 329.2 473.1 C 338.7 462.1 344.3 448.5 348.9 434.9 C 350.5 430.0 352.9 425.2 353.0 420.0 C 353.2 415.5 350.6 411.5 348.7 407.6 C 351.1 406.8 353.7 406.2 355.8 404.8 C 358.1 402.2 358.9 398.7 361.1 396.0 C 362.8 393.6 365.8 391.4 365.2 388.0 C 365.3 383.0 360.5 380.6 357.0 377.9 C 356.2 377.3 355.4 376.6 354.5 375.9 C 355.3 373.9 356.0 371.9 356.9 369.9 C 358.9 366.7 361.2 363.6 363.1 360.2 C 364.9 356.1 361.8 351.4 357.6 350.4 C 353.2 349.5 348.8 350.4 344.4 350.8 C 345.8 346.8 347.5 342.9 349.4 339.2 C 350.7 341.0 352.0 342.8 353.3 344.6 C 356.7 344.0 358.2 340.9 359.4 338.0 C 360.0 335.4 360.9 332.3 359.0 330.0 C 355.1 325.0 348.9 322.7 343.9 319.1 C 334.0 312.4 324.4 303.8 312.0 302.7 C 308.5 302.6 303.7 302.0 301.6 305.6 C 297.3 312.9 295.5 321.4 294.6 329.7 C 293.7 339.7 293.2 349.9 294.4 359.9 C 292.5 360.7 290.5 361.5 288.6 362.4 C 276.1 359.3 263.8 355.2 251.0 354.1 C 248.0 353.8 245.0 354.1 242.1 354.6 C 225.0 356.1 208.1 359.5 191.0 359.7 C 181.2 359.7 171.3 358.5 162.0 355.1 C 150.7 351.1 138.6 348.4 128.8 341.3 C 123.4 337.5 119.3 332.1 117.1 326.0 C 97.4 275.4 92.4 220.6 75.9 169.1 C 66.3 136.1 61.5 101.6 48.2 69.7 C 46.9 66.3 45.0 63.2 44.0 59.7 C 43.8 57.6 43.7 55.5 43.7 53.4 C 48.7 54.1 53.9 54.3 58.5 56.5 C 61.5 59.0 63.1 62.7 65.0 66.0 C 77.8 88.3 86.8 112.6 93.7 137.3 C 95.8 145.1 98.3 152.9 99.0 161.0 C 100.1 173.4 99.0 186.0 101.7 198.2 C 103.1 204.5 106.7 210.1 107.4 216.6 C 108.0 222.1 108.1 227.6 108.8 233.1 C 109.7 241.2 112.0 249.0 112.9 257.0 C 114.4 269.2 115.4 281.5 118.6 293.4 C 121.8 304.6 127.7 315.9 138.0 322.1 C 137.1 317.5 135.8 313.0 134.5 308.4 C 127.9 282.1 124.8 255.0 122.0 228.0 C 119.1 203.4 113.9 178.9 113.7 154.0 C 113.6 148.5 114.2 142.9 112.4 137.6 C 108.6 126.1 98.1 117.6 96.8 105.1 C 95.1 89.8 90.8 75.0 85.3 60.7 C 83.3 55.6 80.8 50.7 77.9 46.0 Z" />
<path fill="#9df056" stroke="#9df056" stroke-width="0.09375" d=" M 109.6 67.1 C 113.2 63.8 117.2 61.3 121.1 58.6 C 130.7 61.9 140.5 67.1 146.2 75.8 C 149.6 80.7 148.5 86.8 148.5 92.3 C 153.5 95.6 158.8 99.1 161.2 104.8 C 162.2 107.1 162.2 110.4 159.9 111.9 C 154.5 115.2 147.4 116.0 141.6 113.4 C 135.6 110.9 130.3 106.5 127.4 100.7 C 125.9 97.6 125.6 93.6 128.0 91.0 C 129.9 88.9 132.4 87.7 134.8 86.3 C 128.1 84.1 121.0 82.2 115.5 77.5 C 112.3 74.9 110.5 71.0 109.6 67.1 Z" />
<path fill="#9df056" stroke="#9df056" stroke-width="0.09375" d=" M 647.8 75.8 C 653.5 67.1 663.3 61.9 672.9 58.6 C 676.8 61.3 680.8 63.8 684.4 67.1 C 683.3 73.6 678.4 78.8 672.4 81.5 C 668.2 83.5 663.7 84.9 659.2 86.3 C 662.2 88.2 666.3 89.7 667.4 93.5 C 668.7 98.4 665.7 103.1 662.5 106.5 C 657.3 111.8 649.8 115.9 642.2 114.8 C 639.2 114.2 636.0 113.5 633.6 111.5 C 631.5 109.6 632.0 106.4 633.1 104.1 C 635.6 98.8 640.7 95.4 645.5 92.3 C 645.5 86.8 644.4 80.7 647.8 75.8 Z" />
<path fill="#9df056" stroke="#9df056" stroke-width="0.09375" d=" M 182.0 100.0 C 186.8 99.8 191.9 99.5 196.3 101.7 C 201.3 104.0 206.3 107.3 208.7 112.4 C 210.7 116.5 208.3 121.5 204.6 123.7 C 201.5 124.2 198.5 122.5 195.6 121.5 C 189.8 119.1 183.4 115.9 181.2 109.6 C 179.9 106.5 180.6 103.0 182.0 100.0 Z" />
<path fill="#9df056" stroke="#9df056" stroke-width="0.09375" d=" M 598.4 101.4 C 602.7 99.5 607.5 99.9 612.0 100.0 C 614.8 105.0 613.4 111.4 609.2 115.2 C 604.3 119.5 598.0 122.0 591.8 123.7 C 588.8 124.7 586.7 121.7 585.5 119.5 C 583.7 116.3 584.7 112.5 586.8 109.8 C 589.7 106.0 594.0 103.3 598.4 101.4 Z" />
<path fill="#9df056" stroke="#9df056" stroke-width="0.09375" d=" M 131.5 122.3 C 144.8 119.9 158.7 120.0 172.0 122.2 C 172.8 128.1 172.6 134.1 172.2 140.0 C 158.5 138.2 144.8 136.6 131.0 135.6 C 130.7 131.2 131.0 126.8 131.5 122.3 Z" />
<path fill="#9df056" stroke="#9df056" stroke-width="0.09375" d=" M 622.0 122.2 C 635.3 120.0 649.2 119.9 662.5 122.3 C 663.0 126.7 663.3 131.2 663.0 135.6 C 649.2 136.6 635.5 138.2 621.8 140.0 C 621.4 134.1 621.2 128.1 622.0 122.2 Z" />
<path fill="#9df056" stroke="#9df056" stroke-width="0.09375" d=" M 180.1 128.1 C 188.5 126.1 197.4 126.2 205.8 128.1 C 206.2 134.1 206.5 140.1 206.2 146.1 C 200.9 145.4 195.6 144.6 190.4 143.5 C 186.9 142.7 182.9 141.5 180.9 138.2 C 179.0 135.2 179.5 131.5 180.1 128.1 Z" />
<path fill="#9df056" stroke="#9df056" stroke-width="0.09375" d=" M 588.2 128.1 C 596.6 126.2 605.5 126.1 613.9 128.1 C 615.0 132.7 614.8 138.6 610.1 141.1 C 603.3 144.6 595.3 144.8 587.8 146.1 C 587.5 140.1 587.8 134.1 588.2 128.1 Z" />
<path fill="#9df056" stroke="#9df056" stroke-width="0.09375" d=" M 229.5 145.5 C 236.6 140.7 247.0 146.3 248.7 154.2 C 249.4 157.4 247.4 160.3 246.0 163.0 C 239.9 173.6 239.8 186.5 241.6 198.3 C 242.7 206.0 245.2 213.5 246.9 221.1 C 243.1 220.2 238.8 219.9 235.6 217.5 C 232.6 213.0 231.0 207.9 228.6 203.1 C 228.3 207.8 226.5 213.8 221.0 214.4 C 214.9 213.9 212.5 207.5 207.6 204.9 C 205.0 204.4 202.2 205.1 199.5 205.3 C 182.7 207.5 165.8 204.6 149.1 201.8 L 148.4 201.7 C 147.6 182.6 143.7 163.8 142.0 144.8 C 161.4 144.2 180.8 148.3 198.9 155.0 C 201.1 155.8 203.2 156.8 205.3 158.0 C 204.6 166.6 201.7 174.9 201.2 183.6 C 207.4 188.2 213.7 192.8 220.8 196.0 C 219.9 191.0 218.2 186.2 217.3 181.2 C 221.8 180.8 226.5 180.6 231.0 179.9 C 226.0 173.5 219.1 168.9 213.5 163.0 C 216.7 155.6 222.7 149.7 229.5 145.5 Z" />
<path fill="#9df056" stroke="#9df056" stroke-width="0.09375" d=" M 545.2 156.8 C 544.5 147.6 556.8 140.2 564.5 145.5 C 571.3 149.7 577.3 155.6 580.5 163.0 C 574.9 168.9 568.0 173.5 563.0 179.9 C 567.5 180.6 572.1 180.8 576.7 181.2 C 575.8 186.2 574.1 191.0 573.2 196.0 C 580.3 192.8 586.6 188.2 592.8 183.6 C 592.3 174.9 589.4 166.6 588.7 158.0 C 597.7 153.3 607.6 150.7 617.4 148.3 C 628.7 146.0 640.4 144.2 652.0 144.8 C 650.3 163.8 646.4 182.6 645.6 201.7 L 644.9 201.8 C 628.5 204.5 611.9 207.4 595.3 205.4 C 592.3 205.2 589.3 204.4 586.4 204.9 C 581.5 207.5 579.1 214.0 573.0 214.4 C 567.5 213.9 565.7 207.8 565.4 203.1 C 563.0 207.9 561.4 213.0 558.4 217.5 C 555.2 219.9 550.9 220.2 547.1 221.1 C 551.2 205.0 556.2 188.0 551.5 171.4 C 550.4 166.1 546.7 161.9 545.2 156.8 Z" />
<path fill="#9df056" stroke="#9df056" stroke-width="0.09375" d=" M 268.2 177.2 C 271.0 174.7 275.3 171.0 279.0 173.9 C 291.7 181.8 298.6 198.9 293.0 213.0 C 287.5 226.4 294.7 241.8 287.9 254.8 C 275.3 252.9 262.7 245.5 257.4 233.6 C 254.0 226.4 256.5 218.5 256.9 211.0 C 258.2 199.3 259.4 186.0 268.2 177.2 Z" />
<path fill="#9df056" stroke="#9df056" stroke-width="0.09375" d=" M 510.4 177.4 C 512.6 175.4 515.1 173.5 518.0 172.7 C 524.9 174.4 529.6 180.6 532.2 186.8 C 536.7 198.0 536.7 210.2 538.2 222.0 C 539.2 228.9 536.5 235.9 532.0 241.0 C 525.4 248.5 516.0 253.4 506.1 254.8 C 500.7 244.7 504.1 232.9 503.1 222.0 C 502.7 215.8 499.2 210.3 499.0 204.1 C 498.6 194.0 503.0 184.1 510.4 177.4 Z" />
<path fill="#1baa13" stroke="#1baa13" stroke-width="0.09375" d=" M 149.1 201.8 C 165.8 204.6 182.7 207.5 199.5 205.3 C 202.2 205.1 205.0 204.4 207.6 204.9 C 212.5 207.5 214.9 213.9 221.0 214.4 C 219.8 214.7 218.7 215.1 217.6 215.4 C 217.0 216.7 216.4 217.9 215.8 219.2 C 195.1 220.1 174.3 218.7 154.1 214.0 C 151.6 210.3 149.6 206.2 149.1 201.8 Z" />
<path fill="#1baa13" stroke="#1baa13" stroke-width="0.09375" d=" M 595.3 205.4 C 611.9 207.4 628.5 204.5 644.9 201.8 C 644.4 206.2 642.4 210.3 639.9 214.0 C 619.7 218.7 598.9 220.1 578.2 219.2 C 577.6 217.9 577.0 216.7 576.4 215.4 C 575.3 215.1 574.2 214.7 573.0 214.4 C 579.1 214.0 581.5 207.5 586.4 204.9 C 589.3 204.4 592.3 205.2 595.3 205.4 Z" />
<path fill="#9df056" stroke="#9df056" stroke-width="0.09375" d=" M 154.1 214.0 C 174.3 218.7 195.1 220.1 215.8 219.2 C 223.6 218.8 232.6 221.0 237.2 227.8 C 238.8 229.8 238.4 232.5 237.9 234.8 C 235.2 246.5 231.2 258.0 228.9 269.8 C 232.8 269.9 236.7 269.7 240.6 269.5 C 241.6 260.9 239.9 251.8 243.7 243.7 C 245.0 241.0 246.8 238.3 249.6 237.0 C 262.2 250.0 277.9 259.5 290.4 272.6 C 291.6 273.9 292.5 275.4 293.5 276.8 C 288.4 282.1 282.4 286.3 276.4 290.4 C 275.6 291.3 274.0 291.8 273.9 293.2 C 273.9 296.9 275.3 300.5 275.9 304.2 C 276.4 307.5 276.3 310.8 276.2 314.1 C 271.2 314.4 266.3 314.3 261.3 314.5 C 247.4 315.2 233.6 317.8 219.6 318.6 C 215.1 318.8 210.5 318.9 206.0 319.2 C 205.5 323.9 205.5 328.5 206.0 333.2 C 223.9 334.7 241.0 325.9 259.0 327.8 C 264.0 328.3 268.6 330.3 273.2 332.0 C 268.9 334.9 264.0 336.5 259.1 338.2 C 236.2 345.7 211.7 345.4 187.9 343.4 C 180.3 343.1 174.5 336.7 172.2 329.9 C 166.9 315.1 171.8 298.7 166.0 284.1 C 158.4 261.6 152.6 237.9 154.1 214.0 Z" />
<path fill="#9df056" stroke="#9df056" stroke-width="0.09375" d=" M 578.2 219.2 C 598.9 220.1 619.7 218.7 639.9 214.0 C 641.3 235.5 636.7 256.8 630.3 277.2 C 628.5 283.2 625.9 288.9 625.3 295.2 C 624.1 307.0 625.7 319.3 621.5 330.6 C 619.1 337.1 613.4 343.1 606.1 343.4 C 583.1 345.4 559.4 345.6 537.1 338.9 C 531.5 337.0 525.8 335.3 520.8 332.0 C 525.4 330.3 530.0 328.3 535.0 327.8 C 553.0 325.9 570.1 334.7 588.0 333.2 C 588.5 328.5 588.5 323.9 588.0 319.2 C 572.9 318.9 557.9 317.0 542.9 315.4 C 534.6 314.3 526.2 314.5 517.8 314.1 C 517.7 310.8 517.6 307.5 518.1 304.2 C 518.7 300.5 520.1 296.9 520.1 293.1 C 519.9 291.8 518.4 291.3 517.6 290.4 C 511.6 286.3 505.6 282.1 500.5 276.8 C 502.9 272.9 506.4 269.9 509.7 266.7 C 521.0 256.4 533.8 248.0 544.4 237.0 C 549.3 239.5 551.5 245.3 552.4 250.4 C 553.3 256.7 552.7 263.2 553.4 269.5 C 557.3 269.7 561.2 269.9 565.1 269.8 C 562.7 257.3 558.3 245.4 555.8 232.9 C 554.9 229.6 557.2 226.6 559.6 224.6 C 564.7 220.2 571.7 218.9 578.2 219.2 Z" />
<path fill="#1baa13" stroke="#1baa13" stroke-width="0.09375" d=" M 301.6 305.6 C 303.7 302.0 308.5 302.6 312.0 302.7 C 324.4 303.8 334.0 312.4 343.9 319.1 C 348.9 322.7 355.1 325.0 359.0 330.0 C 360.9 332.3 360.0 335.4 359.4 338.0 C 353.2 336.4 346.6 335.2 340.4 337.3 C 329.6 341.0 320.8 349.3 315.0 359.0 C 322.3 358.2 329.4 356.2 336.6 354.4 C 338.6 354.0 340.6 353.4 342.7 353.7 C 346.3 355.2 349.0 358.1 352.8 359.2 C 356.1 360.2 359.6 360.1 363.1 360.2 C 361.2 363.6 358.9 366.7 356.9 369.9 C 351.5 371.4 345.9 373.6 340.2 372.8 C 335.5 372.5 330.3 370.7 325.8 372.8 C 322.5 374.3 321.6 380.1 325.7 381.3 C 331.5 383.6 336.9 379.5 341.5 376.5 C 345.4 373.7 350.3 375.3 354.5 375.9 C 355.4 376.6 356.2 377.3 357.0 377.9 C 357.8 383.4 358.7 388.9 358.5 394.4 C 355.6 395.5 352.5 396.2 350.0 398.0 C 347.6 400.7 346.5 404.4 344.2 407.2 C 339.9 412.5 335.4 417.7 330.6 422.6 C 326.5 426.8 325.1 432.7 324.9 438.4 C 328.5 437.3 332.2 435.6 334.6 432.6 C 337.4 429.5 337.7 425.1 338.4 421.2 C 342.0 424.2 345.5 427.2 348.6 430.7 C 345.4 434.8 341.8 438.7 339.3 443.3 C 334.1 452.5 331.4 462.8 329.2 473.1 C 328.9 473.5 328.2 474.3 327.9 474.7 C 324.8 477.3 320.9 479.5 319.6 483.6 C 318.1 487.6 319.6 491.7 320.9 495.5 C 320.5 498.7 319.2 501.7 317.4 504.4 C 313.7 510.1 312.4 516.8 310.1 523.1 C 306.6 532.6 303.1 542.1 298.9 551.4 C 295.2 542.7 294.5 533.3 294.6 524.0 C 294.3 501.1 301.2 478.9 302.4 456.1 C 303.1 447.3 302.5 438.4 301.4 429.6 C 298.8 406.4 296.9 383.1 294.4 359.9 C 293.2 349.9 293.7 339.7 294.6 329.7 C 295.5 321.4 297.3 312.9 301.6 305.6 Z" />
<path fill="#1baa13" stroke="#1baa13" stroke-width="0.09375" d=" M 450.1 319.1 C 460.0 312.4 469.6 303.8 482.0 302.7 C 485.5 302.6 490.3 302.0 492.4 305.6 C 496.7 312.9 498.5 321.4 499.4 329.7 C 500.3 339.7 500.8 349.9 499.6 359.9 C 497.3 381.6 495.5 403.3 493.1 425.0 C 492.0 434.5 490.9 444.0 491.4 453.6 C 492.4 477.3 499.7 500.3 499.4 524.0 C 499.5 533.3 498.8 542.7 495.1 551.4 C 489.2 538.2 484.4 524.7 479.9 511.0 C 478.1 505.6 473.5 501.3 473.1 495.5 C 474.4 491.7 475.9 487.5 474.4 483.6 C 473.1 479.5 469.2 477.3 466.1 474.7 C 465.8 474.3 465.1 473.5 464.8 473.1 C 462.5 462.9 459.8 452.5 454.7 443.3 C 452.2 438.7 448.6 434.8 445.4 430.7 C 448.5 427.2 452.0 424.2 455.6 421.2 C 456.3 425.1 456.6 429.5 459.4 432.6 C 461.8 435.6 465.5 437.3 469.1 438.4 C 468.9 432.7 467.5 426.8 463.4 422.6 C 458.6 417.6 454.1 412.5 449.8 407.2 C 447.5 404.4 446.4 400.7 444.0 398.0 C 441.5 396.2 438.4 395.5 435.5 394.4 C 435.3 388.9 436.2 383.4 437.0 377.9 C 437.8 377.3 438.6 376.6 439.5 375.9 C 442.8 375.4 446.3 374.4 449.7 375.2 C 454.9 377.2 459.0 382.2 465.0 381.9 C 467.4 381.9 471.0 380.9 471.0 377.9 C 471.3 375.0 468.8 372.4 465.9 372.0 C 460.3 371.2 454.8 373.4 449.2 372.9 C 445.0 372.4 441.1 371.0 437.1 369.9 C 435.1 366.6 432.8 363.6 430.9 360.2 C 434.4 360.1 437.9 360.2 441.2 359.2 C 445.0 358.1 447.7 355.2 451.3 353.7 C 453.4 353.4 455.4 354.0 457.4 354.4 C 464.6 356.2 471.7 358.2 479.0 359.0 C 473.2 349.3 464.4 341.0 453.6 337.4 C 447.4 335.2 440.8 336.5 434.6 338.0 C 434.0 335.4 433.1 332.3 435.0 330.0 C 438.9 325.0 445.1 322.7 450.1 319.1 Z" />
<path fill="#143811" stroke="#143811" stroke-width="0.09375" d=" M 275.9 304.2 C 278.5 307.4 284.3 308.9 283.8 313.9 C 283.3 319.6 280.2 324.6 277.7 329.6 C 277.0 331.4 275.2 332.6 273.2 332.0 C 268.6 330.3 264.0 328.3 259.0 327.8 C 241.0 325.9 223.9 334.7 206.0 333.2 C 205.5 328.5 205.5 323.9 206.0 319.2 C 210.5 318.9 215.1 318.8 219.6 318.6 C 233.6 317.8 247.4 315.2 261.3 314.5 C 266.3 314.3 271.2 314.4 276.2 314.1 C 276.3 310.8 276.4 307.5 275.9 304.2 Z" />
<path fill="#143811" stroke="#143811" stroke-width="0.09375" d=" M 510.7 310.7 C 512.8 308.2 515.9 306.6 518.1 304.2 C 517.6 307.5 517.7 310.8 517.8 314.1 C 526.2 314.5 534.6 314.3 542.9 315.4 C 557.9 317.0 572.9 318.9 588.0 319.2 C 588.5 323.9 588.5 328.5 588.0 333.2 C 570.1 334.7 553.0 325.9 535.0 327.8 C 530.0 328.3 525.4 330.3 520.8 332.0 C 517.1 333.0 516.0 328.8 514.6 326.4 C 512.5 321.5 508.9 316.2 510.7 310.7 Z" />
<path fill="#143811" stroke="#143811" stroke-width="0.09375" d=" M 340.4 337.3 C 346.6 335.2 353.2 336.4 359.4 338.0 C 358.2 340.9 356.7 344.0 353.3 344.6 C 352.0 342.8 350.7 341.0 349.4 339.2 C 347.5 342.9 345.8 346.8 344.4 350.8 C 348.8 350.4 353.2 349.5 357.6 350.4 C 361.8 351.4 364.9 356.1 363.1 360.2 C 359.6 360.1 356.1 360.2 352.8 359.2 C 349.0 358.1 346.3 355.2 342.7 353.7 C 340.6 353.4 338.6 354.0 336.6 354.4 C 329.4 356.2 322.3 358.2 315.0 359.0 C 320.8 349.3 329.6 341.0 340.4 337.3 Z" />
<path fill="#143811" stroke="#143811" stroke-width="0.09375" d=" M 434.6 338.0 C 440.8 336.5 447.4 335.2 453.6 337.4 C 464.4 341.0 473.2 349.3 479.0 359.0 C 471.7 358.2 464.6 356.2 457.4 354.4 C 455.4 354.0 453.4 353.4 451.3 353.7 C 447.7 355.2 445.0 358.1 441.2 359.2 C 437.9 360.2 434.4 360.1 430.9 360.2 C 429.1 356.1 432.3 351.4 436.4 350.4 C 440.8 349.5 445.2 350.4 449.6 350.8 C 448.2 346.8 446.5 342.9 444.6 339.2 C 443.3 341.0 442.0 342.8 440.7 344.6 C 437.3 344.0 435.8 340.9 434.6 338.0 Z" />
<path fill="#1baa13" stroke="#1baa13" stroke-width="0.09375" d=" M 242.1 354.6 C 245.0 354.1 248.0 353.8 251.0 354.1 C 263.8 355.2 276.1 359.3 288.6 362.4 C 288.2 368.6 286.0 374.6 283.1 380.1 C 281.3 383.7 277.3 384.8 273.7 385.8 C 265.5 387.9 256.8 389.7 249.8 394.8 C 246.5 397.1 244.0 400.3 241.9 403.7 C 251.0 402.5 260.0 400.1 269.1 399.2 C 262.9 406.9 254.1 412.1 248.0 420.1 C 250.6 426.9 254.1 433.5 258.9 439.1 C 264.4 429.5 265.9 417.8 273.3 409.3 C 276.4 405.7 281.0 403.9 285.6 403.8 C 288.4 430.9 289.4 458.8 282.6 485.5 C 275.9 513.3 285.4 542.7 276.0 570.0 C 266.6 567.8 261.7 558.9 256.0 552.0 C 251.3 546.0 244.4 542.2 239.2 536.8 C 236.0 533.7 236.9 528.9 238.2 525.2 C 243.4 509.4 260.2 500.4 264.1 484.0 C 254.0 488.8 248.4 499.1 241.6 507.6 C 237.4 512.7 232.9 518.1 226.4 520.2 C 224.0 513.9 222.4 507.3 220.1 500.9 C 215.5 486.6 211.0 472.0 210.8 456.9 C 210.6 454.2 211.0 451.1 209.1 448.9 C 205.7 444.7 200.7 441.6 198.6 436.4 C 197.2 433.1 198.1 429.2 200.6 426.6 C 207.3 419.2 215.4 413.3 222.1 405.9 C 216.1 408.6 211.0 412.9 204.7 414.8 C 200.1 416.2 194.3 414.3 192.3 409.7 C 192.2 407.1 193.4 404.7 194.3 402.3 C 196.9 396.6 199.8 391.0 202.0 385.1 C 193.3 388.4 185.3 393.1 176.9 397.0 C 180.4 391.8 185.4 387.9 190.6 384.6 C 201.1 377.8 213.0 373.9 224.1 368.1 C 230.7 364.6 237.6 360.8 242.1 354.6 Z" />
<path fill="#1baa13" stroke="#1baa13" stroke-width="0.09375" d=" M 537.0 354.8 C 541.9 353.9 547.0 353.7 551.9 354.6 C 553.8 357.1 556.1 359.5 558.7 361.3 C 573.0 371.7 590.6 375.9 605.2 385.8 C 609.7 388.9 614.0 392.4 617.1 397.0 C 608.7 393.1 600.7 388.4 592.0 385.1 C 594.3 391.2 597.4 397.0 600.0 403.0 C 600.8 405.1 601.8 407.4 601.7 409.7 C 599.7 414.3 593.9 416.2 589.3 414.8 C 583.0 412.9 577.9 408.6 571.9 405.9 C 578.6 413.3 586.7 419.2 593.4 426.6 C 595.9 429.2 596.7 433.0 595.4 436.4 C 593.2 442.3 586.8 445.2 583.9 450.6 C 582.7 455.8 583.4 461.2 582.5 466.5 C 580.0 485.0 573.2 502.5 567.6 520.2 C 562.8 518.7 558.9 515.2 555.6 511.4 C 547.2 502.2 541.6 489.7 529.9 484.0 C 532.2 494.0 539.6 501.4 546.0 509.0 C 551.4 515.8 557.3 523.7 556.9 532.8 C 555.1 539.1 548.3 541.7 544.0 546.0 C 534.6 553.3 530.4 566.9 518.0 570.0 C 510.2 547.6 515.4 523.6 513.6 500.4 C 513.0 488.8 509.0 477.8 507.7 466.3 C 505.3 445.5 506.2 424.5 508.4 403.8 C 513.3 403.9 518.1 406.0 521.2 409.9 C 528.2 418.4 529.7 429.7 535.1 439.1 C 539.9 433.5 543.4 426.9 546.0 420.1 C 539.9 412.1 531.1 406.9 524.9 399.2 C 534.0 400.1 543.0 402.5 552.1 403.7 C 550.0 400.3 547.5 397.1 544.2 394.8 C 537.2 389.7 528.5 387.9 520.3 385.8 C 516.7 384.8 512.7 383.7 510.9 380.1 C 508.0 374.6 505.8 368.6 505.4 362.4 C 515.9 359.8 526.2 356.5 537.0 354.8 Z" />
<path fill="#143811" stroke="#143811" stroke-width="0.09375" d=" M 288.6 362.4 C 290.5 361.5 292.5 360.7 294.4 359.9 C 296.9 383.1 298.8 406.4 301.4 429.6 C 302.5 438.4 303.1 447.3 302.4 456.1 C 301.2 478.9 294.3 501.1 294.6 524.0 C 294.5 533.3 295.2 542.7 298.9 551.4 C 294.7 560.9 284.7 565.6 276.0 570.0 C 285.4 542.7 275.9 513.3 282.6 485.5 C 289.4 458.8 288.4 430.9 285.6 403.8 C 281.0 403.9 276.4 405.7 273.3 409.3 C 265.9 417.8 264.4 429.5 258.9 439.1 C 254.1 433.5 250.6 426.9 248.0 420.1 C 254.1 412.1 262.9 406.9 269.1 399.2 C 260.0 400.1 251.0 402.5 241.9 403.7 C 244.0 400.3 246.5 397.1 249.8 394.8 C 256.8 389.7 265.5 387.9 273.7 385.8 C 277.3 384.8 281.3 383.7 283.1 380.1 C 286.0 374.6 288.2 368.6 288.6 362.4 Z" />
<path fill="#143811" stroke="#143811" stroke-width="0.09375" d=" M 493.1 425.0 C 495.5 403.3 497.3 381.6 499.6 359.9 C 501.5 360.7 503.5 361.5 505.4 362.4 C 505.8 368.6 508.0 374.6 510.9 380.1 C 512.7 383.7 516.7 384.8 520.3 385.8 C 528.5 387.9 537.2 389.7 544.2 394.8 C 547.5 397.1 550.0 400.3 552.1 403.7 C 543.0 402.5 534.0 400.1 524.9 399.2 C 531.1 406.9 539.9 412.1 546.0 420.1 C 543.4 426.9 539.9 433.5 535.1 439.1 C 529.7 429.7 528.2 418.4 521.2 409.9 C 518.1 406.0 513.3 403.9 508.4 403.8 C 506.2 424.5 505.3 445.5 507.7 466.3 C 509.0 477.8 513.0 488.8 513.6 500.4 C 515.4 523.6 510.2 547.6 518.0 570.0 C 509.3 565.6 499.3 560.9 495.1 551.4 C 498.8 542.7 499.5 533.3 499.4 524.0 C 499.7 500.3 492.4 477.3 491.4 453.6 C 490.9 444.0 492.0 434.5 493.1 425.0 Z" />
<path fill="#143811" stroke="#143811" stroke-width="0.09375" d=" M 340.2 372.8 C 345.9 373.6 351.5 371.4 356.9 369.9 C 356.0 371.9 355.3 373.9 354.5 375.9 C 350.3 375.3 345.4 373.7 341.5 376.5 C 336.9 379.5 331.5 383.6 325.7 381.3 C 321.6 380.1 322.5 374.3 325.8 372.8 C 330.3 370.7 335.5 372.5 340.2 372.8 Z" />
<path fill="#143811" stroke="#143811" stroke-width="0.09375" d=" M 437.1 369.9 C 441.1 371.0 445.0 372.4 449.2 372.9 C 454.8 373.4 460.3 371.2 465.9 372.0 C 468.8 372.4 471.3 375.0 471.0 377.9 C 471.0 380.9 467.4 381.9 465.0 381.9 C 459.0 382.2 454.9 377.2 449.7 375.2 C 446.3 374.4 442.8 375.4 439.5 375.9 C 438.7 373.9 438.0 371.9 437.1 369.9 Z" />
<path fill="#143811" stroke="#143811" stroke-width="0.09375" d=" M 357.0 377.9 C 360.5 380.6 365.3 383.0 365.2 388.0 C 365.8 391.4 362.8 393.6 361.1 396.0 C 358.9 398.7 358.1 402.2 355.8 404.8 C 353.7 406.2 351.1 406.8 348.7 407.6 C 350.6 411.5 353.2 415.5 353.0 420.0 C 352.9 425.2 350.5 430.0 348.9 434.9 C 344.3 448.5 338.7 462.1 329.2 473.1 C 331.4 462.8 334.1 452.5 339.3 443.3 C 341.8 438.7 345.4 434.8 348.6 430.7 C 345.5 427.2 342.0 424.2 338.4 421.2 C 337.7 425.1 337.4 429.5 334.6 432.6 C 332.2 435.6 328.5 437.3 324.9 438.4 C 325.1 432.7 326.5 426.8 330.6 422.6 C 335.4 417.7 339.9 412.5 344.2 407.2 C 346.5 404.4 347.6 400.7 350.0 398.0 C 352.5 396.2 355.6 395.5 358.5 394.4 C 358.7 388.9 357.8 383.4 357.0 377.9 Z" />
<path fill="#143811" stroke="#143811" stroke-width="0.09375" d=" M 428.8 388.0 C 428.7 383.0 433.5 380.6 437.0 377.9 C 436.2 383.4 435.3 388.9 435.5 394.4 C 438.4 395.5 441.5 396.2 444.0 398.0 C 446.4 400.7 447.5 404.4 449.8 407.2 C 454.1 412.5 458.6 417.6 463.4 422.6 C 467.5 426.8 468.9 432.7 469.1 438.4 C 465.5 437.3 461.8 435.6 459.4 432.6 C 456.6 429.5 456.3 425.1 455.6 421.2 C 452.0 424.2 448.5 427.2 445.4 430.7 C 448.6 434.8 452.2 438.7 454.7 443.3 C 459.8 452.5 462.5 462.9 464.8 473.1 C 455.3 462.1 449.7 448.5 445.1 434.9 C 443.5 430.0 441.1 425.2 441.0 420.0 C 440.8 415.5 443.4 411.5 445.3 407.6 C 442.9 406.8 440.3 406.2 438.2 404.8 C 435.9 402.2 435.1 398.7 432.9 396.0 C 431.1 393.6 428.2 391.4 428.8 388.0 Z" />
<path fill="#143811" stroke="#143811" stroke-width="0.09375" d=" M 311.1 444.1 C 314.2 440.9 319.0 441.0 323.1 440.5 C 322.5 444.3 322.6 448.8 319.8 451.8 C 317.4 454.4 313.6 453.8 310.4 453.5 C 309.3 450.5 308.7 446.7 311.1 444.1 Z" />
<path fill="#143811" stroke="#143811" stroke-width="0.09375" d=" M 470.9 440.5 C 475.0 440.9 479.9 440.9 482.9 444.1 C 485.3 446.7 484.7 450.5 483.6 453.5 C 480.4 453.7 476.6 454.4 474.2 451.8 C 471.4 448.8 471.5 444.3 470.9 440.5 Z" />
<path fill="#ffffff" stroke="#ffffff" stroke-width="0.09375" d=" M 144.1 471.9 C 148.6 472.3 153.1 472.7 157.7 473.3 C 159.9 482.0 163.0 490.5 164.1 499.4 C 159.5 498.2 155.6 494.9 153.0 491.0 C 149.1 485.1 146.6 478.5 144.1 471.9 Z" />
<path fill="#ffffff" stroke="#ffffff" stroke-width="0.09375" d=" M 636.3 473.3 C 640.8 472.7 645.4 472.3 649.9 471.9 C 645.7 482.3 641.9 495.8 629.9 499.4 C 631.0 490.5 634.1 482.0 636.3 473.3 Z" />
<path fill="#143811" stroke="#143811" stroke-width="0.09375" d=" M 319.6 483.6 C 320.9 479.5 324.8 477.3 327.9 474.7 C 327.9 478.2 328.4 481.9 327.3 485.4 C 325.9 489.2 323.0 492.1 320.9 495.5 C 319.6 491.7 318.1 487.6 319.6 483.6 Z" />
<path fill="#143811" stroke="#143811" stroke-width="0.09375" d=" M 466.1 474.7 C 469.2 477.3 473.1 479.5 474.4 483.6 C 475.9 487.5 474.4 491.7 473.1 495.5 C 470.9 492.1 468.1 489.2 466.7 485.4 C 465.6 481.9 466.0 478.3 466.1 474.7 Z" />
<path fill="#143811" stroke="#143811" stroke-width="0.09375" d=" M 270.6 501.6 C 272.6 499.7 275.4 499.1 278.1 498.7 C 279.1 505.6 277.7 512.5 276.1 519.1 C 273.7 528.3 268.3 537.3 259.3 541.0 C 260.3 534.4 261.4 527.9 262.2 521.2 C 263.2 514.2 264.7 506.3 270.6 501.6 Z" />
<path fill="#143811" stroke="#143811" stroke-width="0.09375" d=" M 515.9 498.8 C 523.5 499.0 528.5 506.0 530.1 512.8 C 532.4 522.1 532.9 531.7 534.8 541.0 C 525.7 537.3 520.3 528.3 517.9 519.1 C 516.3 512.5 514.9 505.6 515.9 498.8 Z" />
<path fill="#a3b09c" stroke="#a3b09c" stroke-width="0.09375" d=" M 152.9 521.2 C 166.8 526.2 177.9 538.2 182.8 552.0 C 174.1 551.6 166.5 546.5 161.2 539.8 C 156.8 534.5 153.8 528.0 152.9 521.2 Z" />
<path fill="#a3b09c" stroke="#a3b09c" stroke-width="0.09375" d=" M 611.2 552.0 C 616.1 538.2 627.2 526.2 641.1 521.2 C 639.7 531.8 633.3 541.4 624.5 547.5 C 620.6 550.2 615.9 551.6 611.2 552.0 Z" />
<path fill="#143811" stroke="#143811" stroke-width="0.09375" d=" M 166.0 557.1 C 170.0 562.8 170.1 570.3 174.0 576.0 C 180.9 581.5 190.4 582.4 197.6 587.5 C 199.7 593.0 198.9 599.2 199.3 605.0 C 199.0 608.0 199.9 612.0 196.8 613.8 C 192.4 616.8 187.7 619.2 183.2 622.0 C 179.9 618.8 176.3 615.7 172.1 613.9 C 166.4 611.2 160.2 610.5 154.1 609.9 C 158.7 592.5 168.3 575.7 166.0 557.1 Z" />
<path fill="#143811" stroke="#143811" stroke-width="0.09375" d=" M 622.4 571.4 C 624.0 566.5 625.2 561.4 628.0 557.1 C 625.7 575.7 635.3 592.5 639.9 609.9 C 629.2 610.4 618.2 613.8 610.8 622.0 C 605.8 618.7 600.1 616.4 595.6 612.3 C 594.3 608.4 594.9 604.1 594.8 600.0 C 595.1 595.8 594.7 591.4 596.4 587.5 C 603.2 582.8 611.9 581.5 619.0 576.9 C 620.9 575.7 621.6 573.4 622.4 571.4 Z" />
<path fill="#9df056" stroke="#9df056" stroke-width="0.09375" d=" M 294.8 574.8 C 298.2 574.4 302.2 574.6 304.6 577.4 C 308.8 582.3 309.2 589.0 309.6 595.2 C 304.7 593.0 299.7 590.8 295.1 587.9 C 294.7 583.5 294.4 579.2 294.8 574.8 Z" />
<path fill="#9df056" stroke="#9df056" stroke-width="0.09375" d=" M 489.4 577.4 C 491.8 574.6 495.8 574.4 499.2 574.8 C 499.6 579.2 499.3 583.5 498.9 587.9 C 494.3 590.8 489.3 593.0 484.4 595.2 C 484.8 589.0 485.2 582.3 489.4 577.4 Z" />
<path fill="#9df056" stroke="#9df056" stroke-width="0.09375" d=" M 189.8 645.8 C 197.3 638.1 211.0 638.0 218.9 645.1 C 222.4 648.3 223.7 653.2 223.1 657.8 C 210.8 656.3 198.4 655.9 186.2 657.8 C 186.0 653.5 186.7 648.9 189.8 645.8 Z" />
<path fill="#9df056" stroke="#9df056" stroke-width="0.09375" d=" M 577.4 643.3 C 585.6 638.1 598.0 638.7 604.7 646.3 C 607.5 649.4 607.9 653.8 607.8 657.8 C 595.6 655.9 583.2 656.3 570.9 657.8 C 570.1 652.2 572.5 646.3 577.4 643.3 Z" />
</svg>
